<svg width="418" height="418" viewBox="0 0 418 418" fill="none" xmlns="http://www.w3.org/2000/svg">
<path d="M312.204 183.69C314.008 184.579 315.983 185.064 317.994 185.111C318.106 185.099 318.216 185.063 318.315 185.008C318.414 184.952 318.501 184.878 318.571 184.788C318.641 184.699 318.693 184.596 318.723 184.487C318.753 184.377 318.761 184.263 318.746 184.15C318.579 182.833 317.095 183.962 312.978 182.06L313.187 180.513C313.291 180.075 312.769 179.364 312.204 179.573C311.64 179.782 311.494 180.451 311.327 181.663C311.159 182.875 311.076 183.126 312.204 183.69ZM94.0501 189.626C96.5651 188.942 98.927 187.786 101.01 186.219C101.825 185.592 101.553 184.129 101.323 183.293C101.258 183.076 101.115 182.891 100.921 182.773C100.728 182.656 100.497 182.613 100.275 182.655C100.052 182.696 99.8524 182.818 99.7143 182.998C99.5761 183.177 99.509 183.402 99.5259 183.628C99.5656 184.081 99.6496 184.529 99.7767 184.965C94.8234 188.581 92.9006 187.682 93.1932 189.145C93.2582 189.312 93.3792 189.451 93.5355 189.539C93.6918 189.627 93.8737 189.657 94.0501 189.626ZM88.3653 185.759C92.5453 185.759 91.1241 183.293 89.9955 183.669L88.3862 183.92C87.0068 177.378 88.1145 175.999 86.9232 175.957C86.7436 175.946 86.5665 176.005 86.4298 176.122C86.2932 176.239 86.2077 176.405 86.1917 176.584C86.0441 179.169 86.2338 181.761 86.756 184.296C86.9859 185.425 87.4039 185.759 88.3653 185.759ZM209.732 182.165C210.923 182.165 217.193 180.806 218.259 180.639C219.826 180.367 221.686 179.886 221.812 178.194C221.812 177.149 221.059 175.936 220.202 176.563C220.024 176.688 219.893 176.869 219.828 177.077C219.764 177.285 219.771 177.509 219.847 177.713C220.161 178.528 219.492 178.465 209.397 180.66C209.212 180.717 209.054 180.842 208.957 181.01C208.859 181.178 208.829 181.377 208.871 181.566C208.913 181.756 209.025 181.923 209.184 182.034C209.344 182.144 209.539 182.191 209.732 182.165ZM72.2723 131.001C72.7321 131.524 73.8607 131.001 73.5263 130.207C71.4363 125.108 67.5907 119.423 65.1663 113.822C64.7901 112.923 64.0377 111.397 63.3062 111.314C63.2146 111.301 63.1212 111.313 63.0364 111.35C62.9515 111.387 62.8786 111.447 62.8255 111.523C62.3657 112.15 63.0345 113.884 63.348 114.616C64.3094 116.685 68.9701 127.218 72.2723 131.001ZM140.03 122.182C140.069 122.345 140.15 122.495 140.266 122.617C140.381 122.739 140.526 122.829 140.686 122.877C140.847 122.926 141.018 122.932 141.181 122.894C141.345 122.856 141.495 122.776 141.619 122.662C143.344 121.091 144.912 119.355 146.3 117.479C152.57 137.543 152.57 138.254 153.552 138.254C153.693 138.25 153.832 138.216 153.958 138.153C154.084 138.091 154.196 138.003 154.285 137.894C154.374 137.785 154.439 137.658 154.475 137.522C154.511 137.385 154.517 137.243 154.493 137.104C152.152 129.706 149.686 122.474 147.554 115.096C147.506 114.913 147.405 114.748 147.264 114.622C147.123 114.496 146.947 114.414 146.76 114.387C146.572 114.36 146.381 114.39 146.21 114.471C146.039 114.553 145.896 114.683 145.799 114.846C144.598 116.733 143.197 118.485 141.619 120.071C140.365 114.344 137.439 101.261 137.439 101.261C137.386 101.05 137.252 100.869 137.065 100.757C136.879 100.646 136.656 100.612 136.446 100.665C136.235 100.718 136.054 100.852 135.942 101.038C135.831 101.224 135.797 101.447 135.85 101.658C136.561 104.897 139.591 120.739 140.03 122.182ZM31.162 230.903C24.4322 227.685 18.4339 224.383 11.5369 220.746C10.1993 220.035 9.27971 222.481 11.3697 223.045C17.3913 226.804 23.8123 229.881 30.5141 232.22C31.3501 232.45 31.9353 231.363 31.162 230.903ZM36.5124 182.645C36.6561 182.772 36.8352 182.852 37.0257 182.875C37.2162 182.897 37.4091 182.861 37.5783 182.771C38.9577 182.102 37.1812 180.451 37.85 170.523C54.7999 190.984 53.8594 190.462 54.57 190.462C54.7171 190.471 54.8638 190.438 54.9928 190.367C55.1218 190.295 55.2276 190.188 55.2979 190.059C55.3682 189.929 55.4 189.782 55.3895 189.635C55.379 189.488 55.3268 189.347 55.2388 189.229C52.5845 185.885 40.9641 171.443 37.8709 167.514C37.7546 167.366 37.5985 167.255 37.421 167.194C37.2436 167.133 37.0523 167.123 36.8697 167.167C36.6872 167.211 36.5211 167.307 36.3911 167.442C36.2611 167.578 36.1726 167.747 36.1362 167.932C35.7113 171.749 35.6414 175.597 35.9272 179.427C29.6572 173.805 23.6589 167.848 17.3262 162.372C17.1345 162.218 16.8947 162.137 16.6489 162.143C16.4032 162.148 16.1672 162.24 15.9825 162.402C15.7978 162.564 15.6762 162.786 15.6391 163.029C15.602 163.272 15.6518 163.521 15.7796 163.731C18.2458 167.555 32.1652 178.695 36.5124 182.645ZM201.372 105.127C201.372 105.332 201.453 105.529 201.598 105.674C201.743 105.819 201.94 105.9 202.145 105.9C202.35 105.9 202.547 105.819 202.692 105.674C202.837 105.529 202.918 105.332 202.918 105.127C203.276 97.4505 202.955 89.7571 201.957 82.1371C201.935 81.9361 201.856 81.7456 201.728 81.5887C201.601 81.4319 201.43 81.3154 201.238 81.2535C201.045 81.1915 200.839 81.1868 200.644 81.2397C200.449 81.2927 200.273 81.4012 200.139 81.5519C199.198 82.7641 201.455 86.5888 201.372 105.127ZM257.927 141.43C273.832 114.595 272.975 115.932 272.85 115.452C272.494 114.24 271.491 114.825 263.445 117.249C265.535 109.83 268.147 101.909 269.882 94.4054C269.918 94.1628 269.862 93.9155 269.725 93.7121C269.588 93.5087 269.379 93.364 269.141 93.3063C268.903 93.2487 268.651 93.2823 268.436 93.4006C268.221 93.519 268.059 93.7134 267.98 93.9456C265.618 102.306 263.277 110.478 261.02 118.503C260.984 118.669 260.99 118.841 261.038 119.004C261.087 119.167 261.176 119.315 261.297 119.434C261.418 119.553 261.567 119.639 261.731 119.685C261.895 119.731 262.067 119.734 262.232 119.694C262.232 119.694 267.771 117.981 270.007 117.249L256.652 140.72C256.573 140.888 256.561 141.079 256.618 141.255C256.674 141.432 256.796 141.58 256.958 141.67C257.12 141.761 257.31 141.786 257.49 141.741C257.67 141.697 257.826 141.586 257.927 141.43ZM407.362 202.73C406.275 202.208 386.169 214.706 385.96 214.852C385.229 215.375 385.96 216.67 386.713 216.273C387.925 215.73 407.132 205.05 407.78 203.901C407.83 203.796 407.858 203.683 407.864 203.568C407.87 203.453 407.853 203.337 407.814 203.229C407.775 203.12 407.715 203.02 407.638 202.934C407.56 202.849 407.466 202.779 407.362 202.73ZM354.151 178.841C354.151 178.841 374.298 163.48 378.06 160.554C378.875 159.906 378.06 158.464 377.099 158.568C373.306 158.659 369.53 159.085 365.813 159.843C371.208 154.088 375.985 147.784 380.067 141.033C380.756 139.905 379.084 138.734 378.415 139.884C373.811 147.395 368.332 154.333 362.093 160.554C361.424 161.202 361.842 162.79 362.929 162.644C366.618 161.705 370.379 161.075 374.173 160.763C374.173 160.763 358.205 173.616 353.273 177.692C353.19 177.825 353.149 177.981 353.157 178.137C353.164 178.294 353.22 178.445 353.315 178.57C353.41 178.695 353.541 178.787 353.69 178.836C353.84 178.884 354 178.886 354.151 178.841ZM325.329 118.336C338.162 96.2237 340.398 93.0051 338.246 92.4617C337.326 92.2318 337.368 92.3154 323.887 117.542C323.824 117.728 323.828 117.93 323.899 118.113C323.97 118.296 324.103 118.449 324.276 118.543C324.448 118.638 324.648 118.669 324.84 118.631C325.033 118.593 325.206 118.489 325.329 118.336Z" fill="#F0F0F0"/>
<path d="M384.56 254.75C376.033 227.852 354.485 207.161 325.392 198.007C325.373 197.474 325.317 196.944 325.225 196.419C333.167 192.949 334.944 181.015 333.188 170.628C334.714 168.141 338.768 155.35 335.78 157.106L330.325 160.324C329.551 158.234 328.653 156.291 327.691 154.368C327.9 151.024 324.849 145.046 319.478 141.138C314.545 137.543 306.06 134.325 293.687 139.466C284.031 143.479 273.142 152.34 271.491 165.215C269.401 181.935 274.94 190.044 264.594 205.573C253.163 200.397 240.978 197.081 228.5 195.75C228.5 194.813 228.438 193.877 228.312 192.949C233.641 190.253 234.77 181.475 235 178.612C241.27 173.178 242.001 162.352 237.09 162.101C238.352 154.345 238.835 146.482 238.532 138.63C238.26 133.76 236.17 132.674 235.209 132.465C234.53 132.336 233.829 132.402 233.186 132.653C232.543 132.904 231.984 133.331 231.572 133.886C230.005 130.688 226.995 131.085 225.302 133.51C225.136 132.649 224.703 131.863 224.066 131.261C223.428 130.66 222.618 130.274 221.749 130.159C220.88 130.043 219.997 130.204 219.225 130.618C218.452 131.031 217.829 131.677 217.444 132.465C217.039 131.602 216.386 130.879 215.569 130.388C214.752 129.897 213.808 129.66 212.855 129.707C211.903 129.754 210.987 130.083 210.222 130.652C209.458 131.221 208.879 132.005 208.561 132.903C206.471 128.368 201.142 129.413 199.951 134.011C198.383 130.479 194.099 130.5 192.615 134.596C188.706 131.712 185.634 134.596 185.007 139.341C184.627 147.408 184.963 155.493 186.01 163.501C178.925 161.913 184.443 178.507 188.664 178.904C189.396 185.174 191.988 192.071 197.024 193.743C197.024 194.579 196.899 195.436 196.899 196.272C183.386 198.43 170.381 203.041 158.527 209.878C152.006 205.28 137.501 199.031 123.561 200.181C121.035 194.844 119.135 189.233 117.897 183.461C116.977 178.424 119.339 176.438 119.318 172.091C122.024 166.638 122.699 160.399 121.22 154.493C114.637 133.593 74.864 141.535 75.9926 164.483C76.1389 167.096 76.3688 169.708 76.5987 171.736C71.6872 173.22 72.4187 173.575 73.7772 179.552C74.5087 182.813 75.3447 185.509 78.7723 184.798C80.3398 191.591 84.2899 202.438 93.6113 202.438C94.1756 202.438 93.6113 202.082 94.1338 205.594C70.7467 215.772 41.3822 234.854 33.7746 268.294C31.9354 276.361 30.8277 287.814 36.0945 296.467C41.8838 306.102 52.1248 306.708 59.4816 306.227C57.7596 315.689 57.2051 325.326 57.8305 334.923C57.8343 335.057 57.8749 335.187 57.9478 335.3C58.0207 335.413 58.1232 335.503 58.244 335.561C58.3648 335.619 58.4993 335.643 58.6328 335.63C58.7663 335.617 58.8936 335.568 59.0009 335.487C60.1295 334.818 57.9141 334.108 61.4462 306.081C81.134 304.263 99.9022 295.798 117.249 286.895C120.112 288.985 122.955 291.075 125.902 292.956C128.325 297.855 132.037 302 136.641 304.946C141.244 307.892 146.563 309.528 152.027 309.676C151.504 318.474 151.504 327.295 152.027 336.093C152.035 336.2 152.064 336.303 152.112 336.398C152.161 336.493 152.229 336.577 152.31 336.645C152.392 336.714 152.487 336.765 152.589 336.796C152.691 336.826 152.799 336.836 152.905 336.825C154.702 336.658 152.382 335.759 153.803 309.655C171.192 309.655 185.467 298.306 199.783 289.633C216.629 297.345 257.927 311.703 279.768 307.565C280.771 316.468 280.624 324.912 281.481 333.523C281.509 333.677 281.59 333.817 281.71 333.918C281.831 334.018 281.983 334.074 282.14 334.074C282.297 334.074 282.449 334.018 282.569 333.918C282.689 333.817 282.77 333.677 282.798 333.523C283.347 324.724 282.99 315.893 281.732 307.168C296.885 303.573 306.185 292.893 308.651 276.298C309.655 275.63 310.741 274.877 311.87 274.02C324.807 279.183 351.58 291.743 364.663 292.203C364.057 301.922 363.2 312.184 363.054 322.257C363.083 322.428 363.172 322.582 363.303 322.693C363.435 322.805 363.603 322.866 363.775 322.866C363.948 322.866 364.115 322.805 364.247 322.693C364.379 322.582 364.467 322.428 364.496 322.257C364.789 319.478 366.691 295.756 366.586 292.141C387.528 291.66 390.83 274.522 384.56 254.75ZM235.418 165.424C235.982 164.671 236.296 163.794 237.111 164.044C240.037 164.901 237.696 172.175 235.251 175.414C235.46 172.091 235.522 168.726 235.418 165.424ZM185.529 165.424C186.198 165.424 186.115 165.716 187.619 166.009L188.455 176.334C185.362 173.47 183.126 165.466 185.529 165.466V165.424ZM330.743 163.334C330.831 163.04 331.033 162.794 331.304 162.649C331.574 162.504 331.891 162.472 332.185 162.561C332.479 162.649 332.725 162.851 332.87 163.121C333.015 163.392 333.047 163.709 332.958 164.003C332.227 166.594 331.662 168.475 331.182 170.273C331.058 170.496 330.884 170.688 330.674 170.833C330.464 170.978 330.222 171.073 329.969 171.109C328.13 171.171 330.095 165.215 330.743 163.292V163.334ZM295.568 171.694C296.759 170.795 298.201 171.945 298.431 171.966C300.396 173.22 302.611 171.401 302.047 170.879L301.629 170.544C300.082 169.332 296.906 166.824 297.574 165.11C298.076 163.815 300.124 164.003 301.462 163.94C301.509 163.939 301.556 163.926 301.598 163.904C301.64 163.882 301.677 163.851 301.705 163.813C301.733 163.774 301.752 163.73 301.761 163.683C301.769 163.637 301.767 163.589 301.754 163.543C301.545 162.874 301.295 162.205 301.044 161.453C308.942 157.536 317.603 155.395 326.416 155.183C327.315 157.273 328.088 159.258 328.778 161.223C326.166 162.707 323.198 164.337 322.508 167.305C321.887 167.228 321.257 167.291 320.664 167.49C320.07 167.689 319.529 168.018 319.081 168.454C315.799 164.504 302.214 164.839 299.476 164.943C295.944 165.089 305.266 172.216 307.836 174.223C316.468 180.932 322.111 176.313 319.958 170.189C320.26 169.819 320.657 169.538 321.106 169.376C321.555 169.214 322.04 169.177 322.508 169.269C322.586 169.667 322.712 170.053 322.884 170.419C322.78 170.367 322.666 170.341 322.55 170.341C322.434 170.341 322.319 170.367 322.216 170.419C321.359 170.962 322.216 171.694 324.18 175.184C323.938 175.431 323.679 175.661 323.407 175.874C322.613 176.459 323.302 179.009 325.957 175.874C326.354 175.393 325.601 173.993 324.765 172.76C325.774 173.447 326.983 173.78 328.202 173.704C329.42 173.628 330.579 173.149 331.495 172.342C332.409 177.953 331.891 183.704 329.99 189.062C327.9 194.182 322.654 194.475 323.72 196.419C323.996 203.309 323.435 210.208 322.048 216.963C316.677 215.793 306.102 202.689 301.88 196.607C302.317 191.525 301.661 186.408 299.957 181.6C298.557 179.176 295.777 178.068 295.046 175.33C294.76 174.72 294.658 174.04 294.75 173.372C294.843 172.705 295.127 172.078 295.568 171.568V171.694ZM327.252 168.204C327.023 168.893 326.876 169.855 326.124 169.855C325.371 169.855 324.995 168.977 325.079 168.224C325.162 167.472 325.371 165.737 326.166 165.278C326.318 165.202 326.486 165.163 326.657 165.163C326.827 165.163 326.995 165.202 327.148 165.278C328.13 165.549 327.608 167.012 327.252 168.078V168.204ZM315.987 173.011C315.757 173.575 315.527 174.599 314.859 174.912C314.742 174.97 314.613 174.999 314.483 174.999C314.352 174.999 314.223 174.97 314.106 174.912C312.852 174.453 314.232 169.792 315.36 168.893C315.459 168.793 315.581 168.719 315.716 168.679C315.85 168.638 315.993 168.632 316.13 168.661C316.268 168.69 316.396 168.754 316.502 168.845C316.609 168.937 316.69 169.054 316.74 169.186C317.179 170.147 316.113 172.572 315.987 172.885V173.011ZM311.41 170.983C311.139 171.527 311.013 172.028 310.303 172.028C310.135 172.04 309.968 172.01 309.815 171.942C309.662 171.874 309.528 171.769 309.425 171.637C309.322 171.505 309.252 171.35 309.223 171.185C309.194 171.02 309.206 170.85 309.258 170.691C309.487 170.001 309.738 168.433 310.574 168.015C310.707 167.954 310.85 167.921 310.996 167.917C311.142 167.914 311.287 167.94 311.422 167.995C311.557 168.05 311.68 168.132 311.782 168.236C311.884 168.34 311.964 168.464 312.016 168.601C312.309 169.29 311.828 170.231 311.41 170.983ZM300.96 197.777C306.896 208.018 322.529 222.857 323.741 217.883C325.108 211.978 325.74 205.927 325.622 199.867C354.255 209.983 373.692 228.521 382.157 253.538C376.03 250.614 369.298 249.182 362.511 249.358C362.218 242.482 352.792 229.19 349.177 225.198C348.445 224.383 347.087 225.428 347.881 226.243C353.302 232.382 357.45 239.535 360.086 247.289C349.845 239.577 329.217 228.814 300.939 237.675C293.603 225.153 282.891 214.948 270.028 208.227C279.284 202.174 289.929 198.577 300.96 197.777ZM191.967 150.627C204.535 147.196 217.741 146.816 230.485 149.519C230.271 153.061 230.383 156.615 230.82 160.136H230.444C228.709 152.152 217.59 149.686 213.849 158.046C211.938 157.398 209.866 157.398 207.955 158.046C204.339 150.522 193.869 152.947 191.946 160.387H191.549C191.988 157.153 192.128 153.886 191.967 150.627ZM220.391 167.827C220.767 166.761 224.153 158.861 226.347 158.631C226.53 158.629 226.71 158.67 226.874 158.752C227.037 158.833 227.179 158.952 227.287 159.099C227.396 159.246 227.467 159.417 227.497 159.597C227.526 159.778 227.511 159.962 227.455 160.136C225.589 162.794 223.926 165.589 222.481 168.496C221.958 169.792 219.91 169.29 220.391 167.827ZM217.36 164.901C217.109 165.528 215.981 165.905 215.584 165.173C215.187 164.442 216.148 161.662 218.865 157.586C219.555 156.562 220.203 156.061 220.767 156.144C220.951 156.197 221.119 156.293 221.256 156.426C221.394 156.558 221.497 156.722 221.557 156.903C221.617 157.085 221.631 157.278 221.599 157.466C221.567 157.655 221.489 157.832 221.373 157.983C219.782 160.133 218.436 162.453 217.36 164.901ZM199.177 168.371C200.076 166.406 201.079 164.421 202.04 162.477C202.143 162.289 202.294 162.133 202.478 162.024C202.662 161.915 202.872 161.858 203.085 161.858C203.299 161.858 203.509 161.915 203.693 162.024C203.877 162.133 204.028 162.289 204.13 162.477C204.262 162.675 204.332 162.908 204.332 163.146C204.332 163.384 204.262 163.616 204.13 163.815C203.211 165.633 202.27 167.535 201.267 169.374C200.473 170.419 198.55 169.625 199.177 168.371ZM196.648 165.737L196.523 165.884C195.875 166.824 194.245 166.218 194.684 165.027C195.89 161.816 197.431 158.74 199.282 155.852C200.18 154.765 201.999 155.705 201.372 156.98C199.888 159.948 198.069 162.728 196.648 165.737ZM189.187 165.925C190.525 165.361 190.901 163.835 191.277 162.519L191.716 162.393C191.606 163.843 191.784 165.301 192.24 166.682C192.696 168.062 193.419 169.34 194.37 170.44C195.497 171.547 196.91 172.319 198.45 172.67C199.991 173.021 201.599 172.937 203.094 172.428C204.59 171.918 205.914 171.004 206.92 169.785C207.926 168.567 208.574 167.093 208.791 165.528C208.575 167.541 208.484 169.565 208.519 171.589C208.519 172.843 208.227 174.411 209.773 174.515H211.864C212.95 174.515 213.243 172.634 211.989 172.613H210.442C210.32 168.89 210.523 165.162 211.048 161.474C211.195 160.45 209.711 160.303 209.502 161.265C208.582 165.758 209.502 163.188 208.687 159.864C210.146 159.341 211.742 159.341 213.201 159.864C212.741 161.54 212.65 163.296 212.935 165.01C213.22 166.724 213.874 168.356 214.852 169.792C215.597 170.757 216.54 171.55 217.619 172.119C218.697 172.687 219.885 173.017 221.102 173.087C222.318 173.156 223.536 172.963 224.672 172.521C225.808 172.079 226.835 171.397 227.685 170.523C229.738 168.232 230.831 165.239 230.736 162.163H231.133C231.384 163.982 231.76 166.49 233.683 166.343C233.474 173.491 234.101 185.739 228.437 190.211C227.706 190.796 226.87 191.465 226.765 192.134C226.504 194.349 226.504 196.586 226.765 198.801C227.371 204.59 217.235 216.044 211.989 220.934C201.873 207.182 198.968 205.824 198.989 193.764C198.989 192.552 198.843 192.364 198.007 191.946C189.542 187.85 190.316 176.041 189.187 165.925ZM197.004 198.111C197.234 204.528 202.27 213.201 211.153 222.544C212.95 224.884 228.834 205.385 228.521 201.163V197.631C271.303 202.668 301.963 227.288 306.854 260.477C289.089 256.987 266.642 261.083 262.839 261.815C261.207 251.42 258.133 241.305 253.705 231.76C253.63 231.575 253.485 231.426 253.301 231.348C253.117 231.27 252.909 231.268 252.723 231.342C252.537 231.417 252.389 231.563 252.311 231.747C252.232 231.931 252.23 232.139 252.305 232.325C256.148 241.745 258.951 251.556 260.665 261.585C249.672 250.006 232.952 244.865 209.648 245.91C195.622 246.56 181.688 248.54 168.036 251.824C169.128 245.451 171.73 239.431 175.623 234.268C175.708 234.113 175.734 233.931 175.696 233.758C175.657 233.585 175.557 233.431 175.414 233.327C175.27 233.222 175.094 233.173 174.917 233.188C174.74 233.204 174.575 233.283 174.452 233.412C170.061 238.838 167.177 245.326 166.092 252.222C150.94 255.856 136.224 261.119 122.202 267.917C124.125 226.974 161.975 205.029 197.004 198.111ZM106.36 159.405C106.339 161.389 106.458 163.373 106.716 165.34C99.1916 165.528 87.2368 168.454 78.3334 171.213C78.1035 169.374 77.581 166.03 77.5601 164.044C86.5187 159.775 96.514 158.165 106.36 159.405ZM99.7141 170.628C95.5341 177.734 96.4328 178.988 95.0325 178.988C94.8754 178.998 94.7182 178.969 94.5744 178.905C94.4305 178.842 94.304 178.744 94.2057 178.621C94.1074 178.498 94.04 178.353 94.0093 178.199C93.9786 178.045 93.9855 177.885 94.0293 177.734C95.9312 170.544 97.7495 169.207 98.6691 169.04C98.8696 168.999 99.0777 169.019 99.2666 169.097C99.4555 169.176 99.6166 169.309 99.729 169.48C99.8414 169.651 99.9001 169.852 99.8975 170.056C99.8948 170.261 99.8309 170.46 99.7141 170.628ZM93.256 172.195C92.4827 173.47 92.2946 175.247 91.166 174.975C90.0374 174.703 90.8525 172.154 91.5213 170.795C92.1901 169.437 92.7753 169.416 93.1724 169.52C93.3962 169.581 93.5952 169.711 93.7414 169.891C93.8877 170.071 93.9737 170.292 93.9875 170.523C93.9056 171.138 93.652 171.718 93.256 172.195ZM77.7064 176.375C77.4765 176.919 77.4556 178.591 76.327 178.591C76.1074 178.599 75.8912 178.534 75.7131 178.405C75.535 178.276 75.4053 178.092 75.3447 177.88C75.2341 176.418 75.6991 174.971 76.6405 173.847C76.8346 173.673 77.0787 173.565 77.3378 173.539C77.5968 173.513 77.8576 173.569 78.0826 173.7C78.5842 174.035 78.4797 174.912 77.7064 176.313V176.375ZM78.4797 181.245C80.3816 174.411 81.4684 173.408 82.1163 173.261C82.2495 173.231 82.3886 173.238 82.5179 173.282C82.6472 173.327 82.7615 173.406 82.8478 173.512C83.1319 173.841 83.2746 174.27 83.2449 174.703L80.4861 181.83C80.4002 182.096 80.2121 182.317 79.9632 182.445C79.7143 182.572 79.425 182.596 79.1589 182.51C78.8929 182.424 78.6718 182.236 78.5444 181.987C78.4171 181.738 78.3938 181.449 78.4797 181.182V181.245ZM80.5697 184.401C84.5825 183.231 85.8783 183.565 85.4394 177.462C85.2931 175.728 84.9587 171.777 86.7143 171.84C88.1355 171.84 88.1773 178.445 90.2882 180.493C92.3991 182.541 95.137 181.099 97.436 180.493C103.706 178.779 102.327 176.104 101.867 167.806L107.134 167.388C109.495 179.636 112.672 170.461 114.804 169.081C116.162 168.224 117.333 170.105 117.584 171.548C118.064 174.641 115.494 178.027 116.037 182.562C117.269 189.126 119.378 195.495 122.307 201.497C117.73 210.192 104.584 218.217 98.7318 221.394C96.2656 212.449 96.0566 200.703 94.5518 200.745C87.613 200.787 83.0568 195.541 80.4861 184.338L80.5697 184.401ZM94.3219 207.6C94.6981 210.756 96.2447 224.32 98.5019 223.191C104.187 220.516 121.492 209.147 123.958 201.832C127.616 202.668 139.027 200.452 156.75 211.132C143.672 218.944 133.177 230.427 126.571 244.154C109.662 242.064 88.7416 239.452 71.1647 248.731C76.536 236.066 79.7546 234.812 78.2289 233.809C78.1499 233.755 78.0608 233.717 77.967 233.698C77.8731 233.68 77.7765 233.68 77.6828 233.7C77.5891 233.719 77.5003 233.757 77.4218 233.812C77.3432 233.867 77.2765 233.937 77.2257 234.018C76.6823 234.833 69.0538 247.435 68.8657 250.006C65.9188 251.804 59.6279 256.402 57.7469 260.017C50.0634 260.167 42.5761 262.47 36.1363 266.663C42.4899 242.064 62.5748 221.645 94.2383 207.537L94.3219 207.6ZM40.1282 298.87C32.1444 290.51 33.8582 276.528 35.5093 268.858C55.9077 255.461 82.8687 261.188 115.682 285.912C104.646 290.636 56.4302 315.778 40.1282 298.87ZM59.8578 259.975C76.4524 241.604 100.446 242.775 125.714 245.889C119.235 260.832 118.67 276.612 124.083 289.486C105.273 275.4 83.0568 259.913 59.8578 259.913V259.975ZM153.657 308.045C133.07 308.045 122.014 289.967 122.307 269.903C151.567 256.757 177.128 250.027 205.134 248.083C230.715 246.307 247.937 250.968 259.223 262.713C204.089 275.065 181.329 307.983 153.657 307.983V308.045ZM280.06 305.746C259.599 310.365 225.72 298.285 201.643 288.65C240.016 265.995 274.543 257.447 307.126 262.525C309.696 285.871 300.082 301.211 280.06 305.746ZM309.049 274.104C310.133 262.019 307.579 249.885 301.713 239.264C324.159 233.453 343.116 236.839 359.585 249.588C337.953 251.197 316.155 268.085 309.028 274.104H309.049ZM365.897 290.343C353.106 290.343 326.187 277.803 313.793 272.745C327.043 262.713 342.739 252.075 361.633 251.323C369.014 250.867 376.375 252.481 382.888 255.984C388.489 274.877 385.689 290.218 365.876 290.343H365.897Z" fill="#F0F0F0"/>
</svg>
