<svg width="455" height="455" viewBox="0 0 455 455" fill="none" xmlns="http://www.w3.org/2000/svg">
<path fill-rule="evenodd" clip-rule="evenodd" d="M130.722 105.97V107.586C130.722 108.038 130.902 108.472 131.222 108.792C131.542 109.112 131.976 109.292 132.428 109.292C132.881 109.292 133.315 109.112 133.635 108.792C133.955 108.472 134.135 108.038 134.135 107.586V105.879C134.111 105.431 133.916 105.008 133.59 104.699C133.264 104.39 132.832 104.218 132.383 104.219C132.158 104.221 131.936 104.269 131.729 104.36C131.523 104.45 131.337 104.58 131.182 104.744C131.028 104.907 130.907 105.1 130.828 105.31C130.749 105.521 130.713 105.746 130.722 105.97ZM130.062 101.216C132.565 100.624 134.612 98.9406 130.972 99.1681C130.071 99.2939 129.181 99.4917 128.311 99.7596C124.898 101.17 127.856 101.739 130.062 101.216ZM338.793 117.05C337.745 119.249 335.991 121.035 333.811 122.123C333.727 122.153 333.655 122.212 333.609 122.289C333.563 122.366 333.545 122.456 333.559 122.545C333.572 122.634 333.616 122.715 333.683 122.775C333.75 122.835 333.835 122.87 333.925 122.874C334.661 123.003 335.418 122.949 336.129 122.717C336.839 122.485 337.482 122.081 337.999 121.541C338.516 121.001 338.893 120.342 339.095 119.622C339.297 118.902 339.318 118.144 339.158 117.414C339.158 117.317 339.119 117.225 339.051 117.156C338.983 117.088 338.89 117.05 338.793 117.05ZM329.739 99.0089C329.302 98.8969 328.838 98.9604 328.447 99.1857C328.056 99.411 327.768 99.7802 327.646 100.215C327.44 100.955 327.401 101.732 327.532 102.49C327.532 102.942 327.712 103.376 328.032 103.696C328.352 104.016 328.786 104.196 329.238 104.196C329.691 104.196 330.125 104.016 330.445 103.696C330.765 103.376 330.945 102.942 330.945 102.49C330.945 100.852 331.309 99.4411 329.739 99.0089ZM251.502 322.528C249.659 321.595 214.419 323.893 213.532 327.851C213.35 328.716 213.919 332.037 214.92 332.583C216.899 333.63 250.796 331.719 252.662 328.033C253.192 327.137 253.367 326.074 253.153 325.055C252.938 324.035 252.349 323.134 251.502 322.528ZM215.352 331.628C214.65 330.525 214.272 329.249 214.26 327.942C214.715 325.895 233.484 324.78 235.554 324.643C235.505 326.482 235.978 328.296 236.919 329.876C234.326 330.285 216.581 332.287 215.352 331.696V331.628ZM251.001 327.078C249.204 328.352 240.081 329.512 237.897 329.785C238.089 327.984 237.706 326.169 236.805 324.598C239.512 324.416 248.18 323.938 250.751 324.166C251.434 324.666 251.456 326.213 251.001 327.123V327.078ZM191.715 327.919C191.653 327.881 191.582 327.861 191.51 327.861C191.438 327.861 191.367 327.881 191.305 327.919C191.305 327.692 147.853 352.171 146.533 354.764C146.475 354.889 146.444 355.025 146.444 355.163C146.444 355.3 146.475 355.436 146.533 355.561C147.921 359.542 193.262 400.537 195.15 401.47C195.696 401.743 196.379 401.265 198.517 400.128C203.067 397.694 241.901 376.946 245.905 373.601C247.02 372.464 247.702 362.226 247.088 361.066C246.474 359.906 191.715 328.147 191.715 327.919ZM195.65 399.582C190.805 395.737 152.425 361.157 148.171 355.288C152.13 351.557 190.418 329.375 191.578 328.693C197.448 332.265 239.694 357.972 245.109 361.612C242.247 362.439 239.525 363.689 237.033 365.32C235.736 366.572 238.967 368.892 243.448 373.237C236.601 377.651 202.635 395.851 195.65 399.582ZM244.745 371.941C244.518 371.713 239.035 366.367 238.785 366.162C240.995 364.783 243.272 363.514 245.609 362.363C245.617 365.577 245.312 368.785 244.699 371.941H244.745Z" fill="#F0F0F0"/>
<path fill-rule="evenodd" clip-rule="evenodd" d="M225.84 367.754C224.247 368.437 204.819 374.875 199.336 377.105C197.724 377.908 195.968 378.38 194.172 378.492C193.853 378.492 195.696 374.943 209.642 364.069C211.098 362.931 213.896 360.77 214.192 358.996C215.534 353.126 199.632 361.908 185.413 367.459C183.942 368.248 182.338 368.758 180.681 368.96C180.522 368.027 183.729 365.093 183.934 364.865C192.42 355.492 203.181 351.625 202.453 348.167C201.338 342.752 181.591 353.285 177.428 354.992C173.924 356.47 168.328 358.245 168.669 358.245C167.918 358.541 168.669 359.064 168.805 358.996C168.942 358.927 176.154 356.721 177.905 355.947C180.522 354.946 198.016 346.506 200.928 348.485C202.089 349.304 189.713 355.97 182.728 363.682C181.5 365.002 178.178 367.686 179.202 369.87C179.39 370.208 179.674 370.481 180.019 370.656C180.364 370.83 180.753 370.897 181.136 370.848C184.526 370.848 207.64 359.269 212.394 358.905C211.303 360.345 209.999 361.61 208.527 362.658C205.137 365.343 195.309 373.351 193.034 377.036C191.851 378.947 192.829 380.085 194.376 380.108C196.424 380.108 198.926 378.72 205.092 376.399C225.999 368.346 226.659 368.71 226.317 367.959C226.3 367.914 226.273 367.873 226.24 367.838C226.206 367.803 226.166 367.775 226.121 367.756C226.077 367.737 226.029 367.727 225.981 367.727C225.932 367.727 225.884 367.736 225.84 367.754Z" fill="#F0F0F0"/>
<path fill-rule="evenodd" clip-rule="evenodd" d="M443.625 281.008C443.329 257.212 441.191 208.641 436.482 185.094C434.002 172.605 428.633 155.52 418.646 147.261C414.414 143.781 408.181 140.436 396.874 134.18C397.01 133.884 379.015 126.604 378.173 129.016C377.474 124.866 376.494 120.77 375.239 116.753C376.922 116.208 376.171 111.294 376.877 108.518C377.582 105.743 380.244 103.763 381.609 101.488C384.68 96.415 385.203 87.5653 384.634 81.673C384.088 76.1903 376.08 63.9507 370.802 61.9487C365.524 59.9467 360.11 60.015 354.536 58.9002C349.986 57.9675 346.619 55.4422 341.523 54.8052C336.427 54.1682 333.379 57.0802 329.01 57.0802C324.642 57.0802 319.729 53.6905 315.156 53.4175C312.671 53.379 310.257 54.2432 308.362 55.8499C306.467 57.4565 305.219 59.6964 304.85 62.1535C304.298 65.8159 304.732 69.5592 306.108 72.9981C307.483 76.4369 309.751 79.447 312.676 81.7185C316.238 83.9719 320.24 85.4379 324.415 86.0183C324.142 97.6435 325.371 94.5267 324.005 95.5505C322.641 96.5742 323.073 103.741 323.551 105.72C323.755 106.516 323.96 106.812 324.938 107.13C324.392 109.405 320.548 114.319 324.005 115.525C324.461 115.684 326.281 116.003 326.462 116.071C326.929 118.228 327.615 120.332 328.51 122.35C329.392 124.378 330.682 126.204 332.298 127.715C333.914 129.225 335.822 130.388 337.906 131.131C341.182 132.405 343.775 132.747 345.686 133.406C345.95 134.347 346.087 135.319 346.096 136.296C337.972 138.431 330.318 142.065 323.528 147.011C311.22 156.998 293.725 198.426 289.152 202.976C287.378 204.728 245.586 212.827 239.421 217.013C238.215 217.832 238.17 218.537 238.329 219.993C236.827 220.266 230.503 221.449 229.798 222.791C229.59 223.766 229.644 224.779 229.957 225.726C224.328 224.675 218.648 223.915 212.94 223.451C211.895 223.475 210.868 223.719 209.923 224.166C208.979 224.612 208.139 225.252 207.457 226.045C205.546 228.32 207.093 227.933 205.068 227.614C200.769 227 185.367 232.164 183.433 233.074C183.433 232.255 183.433 231.687 182.569 231.232C180.03 230.496 177.377 230.234 174.743 230.458C173.15 231.527 179.293 231.163 181.841 232.483C181.841 234.235 182.068 252.207 181.841 255.733C181.841 256.37 181.841 256.279 181.363 256.348C179.088 256.666 175.812 256.348 174.811 257.076C175.175 249.159 174.811 229.776 173.719 228.638C173.059 227.956 160.911 226.5 147.693 224.907C147.74 215.344 147.208 205.786 146.1 196.287C143.666 175.175 138.57 150.287 122.645 137.661C123.568 138.038 124.584 138.125 125.557 137.911C126.857 137.395 128.257 137.177 129.652 137.274C131.927 137.888 132.223 139.549 137.91 135.727C138.274 135.477 139.23 135.545 139.981 134.794C142.551 132.223 141.255 128.743 141.255 126.149C141.631 124.386 141.754 122.578 141.619 120.78C141.549 120.512 141.418 120.264 141.237 120.055C141.055 119.846 140.828 119.681 140.572 119.575C140.572 118.824 141.368 117.481 140.231 116.026C141.869 115.161 143.643 114.16 142.733 112.386C140.995 109.605 139.561 106.646 138.456 103.559C137.751 100.92 138.707 97.5525 138.661 94.7088C138.661 92.7523 138.866 90.409 138.661 88.2705C140.416 87.0453 141.757 85.3157 142.506 83.311C142.672 82.5007 142.636 81.662 142.402 80.8686C142.168 80.0752 141.743 79.3515 141.164 78.761C140.413 78.2832 140.254 78.761 140.276 77.3505C140.359 76.8555 140.337 76.3488 140.211 75.8629C140.086 75.3771 139.86 74.9229 139.548 74.5295C138.593 73.5967 136.409 72.573 135.726 71.6175C134.566 69.9112 133.884 68.205 131.7 67.5225C130.153 67.022 128.697 68.0002 127.65 67.659C126.217 67.204 124.738 65.657 123.1 67.295C122.735 67.4933 122.333 67.6175 121.919 67.6604C121.506 67.7033 121.087 67.6642 120.689 67.5452C119.324 66.385 118.982 64.383 116.662 63.9507C115.342 63.7232 112.749 64.3602 111.748 63.9507C110.108 62.7437 108.299 61.7854 106.379 61.107C104.233 60.9026 102.067 61.0876 99.9862 61.653C98.5302 61.9487 96.6647 61.7895 95.1405 62.017C91.9782 62.5175 91.0682 65.2475 88.9752 66.567C86.8822 67.8865 83.356 67.9092 81.354 70.8667C79.6705 73.3692 80.0345 76.0765 79.3747 78.579C79.1017 79.6483 77.6457 80.854 77.0997 81.946C75.8257 84.4713 76.804 87.0192 76.7812 89.2032C76.7585 91.3872 75.2342 93.3892 75.6665 96.0282C76.0177 97.3462 76.595 98.5933 77.3727 99.7138C77.3821 100.083 77.3361 100.451 77.2362 100.806C76.5422 102.596 76.3996 104.553 76.8267 106.425C77.1991 108.22 78.0659 109.875 79.3292 111.203C80.9217 112.59 81.7407 112.226 82.901 114.206C83.389 115.252 84.1226 116.165 85.0395 116.867C86.723 118.005 88.7932 117.027 89.7942 117.527C90.417 117.856 91.0962 118.064 91.7962 118.141C91.2362 118.424 90.7524 118.838 90.3857 119.347C78.0097 120.917 61.6752 129.948 51.7107 142.302C47.775 147.375 41.1547 154.701 38.675 160.57C25.3435 190.691 31.85 237.92 26.481 252.503L13.195 287.151C12.558 288.812 10.92 297.07 11.5115 299.914C12.467 304.145 16.9032 298.844 19.6105 295.841C17.927 301.825 17.9497 303.395 17.0625 326.941C16.7895 334.312 16.5392 342.342 16.4255 349.099C16.419 349.148 16.4229 349.197 16.4371 349.244C16.4513 349.291 16.4754 349.334 16.5078 349.371C16.5402 349.407 16.58 349.437 16.6247 349.456C16.6694 349.476 16.7178 349.486 16.7667 349.486C17.4037 349.486 16.9942 350.214 17.927 331.422C18.5867 318.205 19.3375 305.874 19.4057 304.873C19.7425 300.985 20.5995 297.159 21.9537 293.498C28.3071 288.752 35.4565 285.177 43.0657 282.942C51.5344 280.677 60.4772 280.906 68.8187 283.602C71.0937 284.353 77.2135 285.877 79.3975 284.853C83.9475 282.578 95.6637 275.048 97.5975 270.475C98.553 268.2 99.3265 266.358 100.077 264.651C103.558 264.97 107.835 265.857 111.634 265.903C115.888 265.903 118.618 265.22 123.328 261.057C140.64 261.444 159.728 260.92 168.828 260.579C174.902 262.854 193.557 269.52 198.084 274.002C199.859 275.731 200.905 280.554 201.542 285.923C202.381 292.34 202.602 298.823 202.202 305.283C189.735 307.672 173.855 311.448 161.57 314.497C160.883 314.305 160.164 314.251 159.455 314.337C156.201 314.678 157.726 315.998 156.656 312.699C156.708 312.711 156.761 312.71 156.812 312.697C156.863 312.683 156.909 312.657 156.948 312.621C156.986 312.585 157.015 312.54 157.031 312.49C157.048 312.44 157.052 312.387 157.043 312.335C157.01 307.963 156.499 303.607 155.519 299.345C155.36 298.708 154.245 298.39 153.562 298.185C146.191 296.046 117.731 293.18 111.475 294.795C107.403 295.864 79.2155 310.424 77.9415 313.518C76.6675 316.612 73.2095 335.222 72.5725 338.657C57.8305 342.957 46.2052 346.506 40.5177 348.44C40.4706 348.455 40.4271 348.479 40.3898 348.512C40.3526 348.545 40.3223 348.585 40.3011 348.629C40.2798 348.674 40.2678 348.723 40.266 348.772C40.2641 348.822 40.2724 348.871 40.2902 348.917C40.5632 349.759 48.0252 345.892 124.465 325.803C125.233 327.764 126.218 329.634 127.4 331.377C125.125 331.923 122.554 332.924 121.803 335.017C121.67 335.459 121.648 335.927 121.739 336.38C121.831 336.832 122.032 337.255 122.327 337.611C124.193 339.7 126.681 341.136 129.425 341.706C134.235 342.911 139.234 343.174 144.144 342.479C148.859 342.068 153.505 341.074 157.976 339.522C162.844 337.474 162.526 334.426 160.66 333.038C158.738 331.907 156.626 331.136 154.427 330.763C156.497 327.009 154.563 328.67 157.657 327.919C159.408 327.501 161.008 326.603 162.276 325.326C164.278 323.278 165.62 318.228 163.709 315.793C173.309 313.518 211.916 303.963 221.357 304.669C238.488 305.92 363.044 357.13 392.529 367.004C392.575 367.018 392.624 367.024 392.672 367.02C392.721 367.016 392.768 367.003 392.811 366.981C392.854 366.958 392.893 366.928 392.924 366.891C392.956 366.854 392.98 366.811 392.995 366.765C393.01 366.718 393.016 366.669 393.012 366.621C393.008 366.573 392.994 366.525 392.972 366.482C392.95 366.439 392.919 366.4 392.882 366.369C392.845 366.337 392.802 366.313 392.756 366.298C385.044 363.614 367.845 356.766 347.256 348.53C348.257 346.119 350.896 338.339 352.944 335.654C353.785 334.562 353.74 334.471 361.247 334.903C380.926 336.041 398.262 335.518 417.144 329.489C428.678 325.781 434.343 317.227 437.619 305.783C438.279 305.988 440.076 306.58 440.713 306.716C440.895 306.76 441.084 306.76 441.266 306.717C441.448 306.673 441.617 306.587 441.759 306.466C444.012 304.168 443.625 285.49 443.625 281.008ZM132.45 124.579C131.835 124.804 131.17 124.859 130.526 124.739C129.882 124.619 129.281 124.328 128.788 123.897C128.297 123.504 127.912 122.994 127.67 122.413C127.427 121.833 127.335 121.201 127.4 120.576C127.37 120.482 127.378 120.38 127.423 120.293C127.468 120.205 127.545 120.139 127.639 120.109C127.732 120.079 127.834 120.087 127.922 120.132C128.009 120.177 128.075 120.254 128.105 120.348C129.228 121.964 130.815 123.201 132.655 123.897C132.714 123.945 132.757 124.01 132.779 124.083C132.801 124.156 132.801 124.233 132.779 124.306C132.757 124.379 132.714 124.444 132.656 124.492C132.598 124.541 132.526 124.571 132.45 124.579ZM111.088 104.651C111.166 103.982 111.434 103.35 111.862 102.831C112.362 102.33 113.886 102.648 114.956 101.92C115.755 101.288 116.362 100.445 116.707 99.4862C117.981 96.961 120.006 98.9175 122.827 94.7543C123.547 93.5835 124.106 92.3208 124.488 91.0005C126.08 90.2497 128.151 91.3418 130.153 88.043C130.812 86.9282 131.245 85.768 132.428 85.4495C133.315 86.405 134.202 89.9995 137.797 88.6118C137.797 89.8403 137.524 96.051 137.455 96.5515C137.161 98.0508 137.001 99.5736 136.978 101.101C136.978 105.651 139.071 108.154 141.391 112.909C141.755 113.66 139.844 114.387 138.889 114.911C137.541 114.414 136.146 114.056 134.725 113.842C130.312 112.772 126.786 115.07 122.986 116.117C122.343 116.121 121.701 116.044 121.075 115.889C119.642 115.752 118.141 117.208 116.116 117.481C115.588 117.585 115.041 117.528 114.546 117.317C114.051 117.106 113.631 116.751 113.34 116.298C113.095 115.465 112.92 114.613 112.817 113.75C112.612 112.931 112.362 112.112 112.18 111.316C111.816 109.678 112.885 109.041 111.634 106.766C110.77 105.219 110.792 105.902 111.088 104.651ZM111.953 151.061C113.485 148.153 114.734 145.106 115.684 141.961C116.958 149.878 117.64 153.881 117.959 155.883C116.298 154.496 116.139 153.972 111.953 150.969V151.061ZM118.778 160.32C119.892 167.145 119.642 165.598 119.847 167.008C119.304 165.984 118.639 165.03 117.868 164.165C118.122 162.662 118.237 161.138 118.209 159.615L118.778 160.32ZM110.542 164.415C109.184 163.002 107.943 161.48 106.834 159.865C107.959 157.234 109.227 154.667 110.633 152.175C115.411 155.838 115.047 155.792 116.23 157.271C116.403 159.209 116.403 161.158 116.23 163.095L110.542 164.415ZM110.838 165.893C113.545 171.922 114.637 181.818 115.206 188.416C112.366 180.106 108.548 172.164 103.831 164.756C104.753 163.496 105.575 162.164 106.288 160.775C107.225 162.52 108.346 164.16 109.632 165.666C109.797 165.769 109.982 165.835 110.174 165.859C110.367 165.882 110.563 165.863 110.747 165.802L110.838 165.893ZM97.3245 117.208C97.5096 117.266 97.7002 117.304 97.8932 117.322C98.423 117.298 98.9308 117.104 99.3408 116.768C99.7509 116.431 100.041 115.972 100.168 115.457C100.532 115.229 100.805 114.979 100.782 114.547C100.76 114.114 95.8685 107.426 102.102 103.991C102.652 103.931 103.204 104.074 103.656 104.392C104.109 104.71 104.43 105.182 104.559 105.72C104.853 106.933 105.475 108.043 106.356 108.928C106.425 110.382 106.615 111.828 106.925 113.25C107.107 114.092 106.47 115.184 106.333 116.344C106.015 118.619 108.222 121.121 109.018 123.169C110.087 125.922 109.359 128.879 111.907 131.313C114.455 133.748 113.977 131.746 114.865 137.206C113.803 141.497 112.341 145.678 110.497 149.696C107.926 146.056 94.913 124.807 92.2967 119.961C93.275 119.37 96.3235 117.641 97.2335 117.118L97.3245 117.208ZM90.4995 120.234C92.1602 124.102 108.699 150.31 108.699 150.537C107.903 153.062 103.33 163.527 101.169 164.665C96.4145 161.275 83.3787 125.626 82.446 122.396C85.0126 121.296 87.7127 120.539 90.4767 120.143L90.4995 120.234ZM113.977 220.676C111.475 219.879 103.399 192.465 96.187 177.291C91.8645 168.191 83.3787 153.153 74.1195 149.149C64.1095 144.85 45.5 155.156 43.5207 168.533C42.3122 177.355 43.0262 186.334 45.6137 194.854C56.3517 227.319 70.889 253.208 101.943 260.625C102.671 259.169 100.1 260.374 120.529 260.92C119.528 261.699 118.463 262.392 117.344 262.991C113.522 265.061 106.265 263.4 100.896 262.809L101.579 261.33C69.5922 254.186 54.6227 227.205 43.9075 195.355C41.2013 186.578 40.4253 177.319 41.6325 168.214C43.68 153.745 62.9492 143.371 73.619 146.965C76.3395 147.979 78.8301 149.526 80.9445 151.515C79.9299 142.399 79.6788 133.214 80.1937 124.056C80.6118 123.685 81.0609 123.35 81.536 123.055C83.4925 129.88 94.64 162.504 100.305 166.121C100.664 166.333 101.085 166.417 101.498 166.36C101.911 166.302 102.293 166.105 102.58 165.802C107.698 174.607 112.476 183.616 114.387 193.102C115.468 198.338 115.744 203.708 115.206 209.027C111.975 195.65 103.035 176.313 92.8655 167.054C103.262 185.003 110.838 213.714 114.228 219.379C115.584 219.752 116.969 220.011 118.368 220.152C117.777 206.502 117.322 178.042 111.543 165.689C112.248 165.689 117.231 164.619 117.231 164.619C118.129 165.698 118.893 166.882 119.506 168.146C120.438 169.943 120.12 168.578 121.53 178.133C128.355 222.245 127.969 222.018 128.856 222.496C124.397 221.927 116.548 221.449 113.977 220.676ZM129.083 211.576C120.211 161.207 120.12 159.796 116.389 138.775C116.685 137.774 116.912 136.955 117.071 136.364C118.482 138.161 126.171 148.012 127.013 150.173C125.762 151.288 121.257 153.199 122.622 154.723C123.237 155.429 128.31 159.819 129.902 161.412C130.767 165.074 129.402 205.206 129.083 211.576ZM73.4825 338.361C74.1195 335.472 78.2827 316.681 79.443 314.042C80.2847 312.085 107.721 297.525 112.044 296.433C118.277 294.795 152.22 298.162 154.586 299.686C155.654 303.655 156.28 307.729 156.452 311.835C152.63 307.285 123.055 308.491 122.736 314.906C122.73 315.117 122.774 315.326 122.865 315.516C122.956 315.706 123.091 315.871 123.259 315.998C123.245 318.748 123.558 321.49 124.192 324.165C106.72 328.875 89.2482 333.789 73.4825 338.361ZM160.228 334.812C161.388 338.566 147.761 340.181 143.826 340.636C139.152 341.302 134.394 341.062 129.811 339.931C127.809 339.385 124.101 337.929 123.396 336.109C123.055 335.245 124.169 334.426 124.988 333.993C126.026 333.451 127.126 333.039 128.264 332.765C129.504 334.473 131.166 335.829 133.087 336.701C135.362 337.702 145.077 336.996 148.444 336.268C149.922 335.95 151.492 335.518 153.722 331.946C155.087 332.151 159.841 333.561 160.228 334.812ZM149.354 334.016C147.647 335.04 135.59 335.859 133.747 335.108C127.65 332.674 124.329 323.164 124.078 316.453C129.035 317.543 134.122 317.919 139.184 317.568C142.984 317.067 151.97 315.52 155.269 313.86C157.248 321.322 153.062 331.855 149.354 334.016ZM162.071 322.277C161.455 323.495 160.59 324.57 159.532 325.433C158.474 326.295 157.246 326.925 155.928 327.282C157.119 324.091 157.683 320.7 157.589 317.295C157.769 316.919 158.03 316.587 158.353 316.324C158.676 316.06 159.053 315.872 159.458 315.772C159.862 315.672 160.284 315.662 160.693 315.745C161.101 315.827 161.487 315.999 161.821 316.248C163.527 317.363 162.776 320.343 162.071 322.277ZM396.396 134.84C411.775 143.326 418.6 146.875 423.514 154.314C420.423 151.656 416.489 150.18 412.412 150.15C397.829 149.65 390.663 171.24 386.932 185.208C380.744 208.504 384.543 237.988 384.202 242.311C380.266 245.974 360.11 256.439 351.101 261.33C352.352 256.052 356.811 235.691 359.723 227.66C363.636 216.876 374.897 191.76 375.648 186.3C375.853 184.685 375.534 184.48 370.757 181.386C372.6 181.386 377.582 180.886 379.129 180.59C379.788 180.59 380.13 180.294 380.38 178.906C381.222 174.083 382.86 134.339 382.996 130.108C382.837 130.017 394.44 133.725 396.464 134.84H396.396ZM378.856 129.402C379.892 129.328 380.933 129.443 381.927 129.744C380.79 146.237 379.652 175.244 378.583 178.952C377.377 179.18 373.1 179.475 371.439 179.589C367.89 179.794 367.799 179.589 367.435 180.09C367.071 180.59 367.572 181.272 368.232 181.727C369.392 182.546 373.259 184.981 373.805 185.618C373.28 188.326 372.472 190.972 371.394 193.512C358.54 227.637 359.314 217.149 350.669 254.573C351.246 236.646 352.902 218.77 355.628 201.042C357.448 191.283 359.655 182.114 367.003 161.23C369.892 153.154 375.876 137.684 376.103 137.774C377.244 135.056 378.187 132.258 378.924 129.402H378.856ZM339.339 269.019C339.771 270.703 339.771 270.475 339.635 270.498L338.93 270.361C338.93 270.134 337.701 247.293 338.293 237.852C339.362 221.131 340.727 202.999 342.001 185.527C342.615 177.064 344.935 158.886 344.867 159.569L347.142 157.885C348.086 159.769 349.158 161.586 350.35 163.323C350.805 163.937 351.419 164.71 352.147 164.779C351.647 168.896 344.071 219.697 341.841 252.161C340.613 269.838 341.842 266.085 340.044 267.7C339.831 267.844 339.66 268.042 339.548 268.274C339.436 268.505 339.387 268.763 339.407 269.019H339.339ZM352.853 164.802C354.582 164.802 356.447 161.162 358.722 159.615C359.609 160.547 362.294 165.006 364.068 165.598C356.538 186.255 348.485 215.056 348.507 262.604C346.574 263.65 343.957 265.152 342.023 266.267C343.161 246.906 351.397 183.366 352.921 164.802H352.853ZM376.74 134.225C376.012 136.5 365.206 162.595 364.455 163.8C363.282 162.65 362.237 161.376 361.338 160.001C359.427 157.431 358.768 156.589 355.514 160.252C360.337 151.152 369.756 141.915 373.714 137.319C377.491 132.997 376.99 133.361 376.74 134.225ZM325.78 86.4505C327.477 86.9732 329.293 86.9732 330.99 86.4505C332.288 85.8734 333.722 85.6686 335.13 85.859C337.118 86.7755 339.162 87.5657 341.25 88.225C343.832 88.2023 346.409 87.997 348.962 87.6107C350.132 88.1574 351.123 89.0247 351.82 90.112C352.516 91.1993 352.89 92.4619 352.898 93.7532C348.658 94.3689 344.565 95.7487 340.818 97.8255C340.588 97.0785 340.132 96.4214 339.512 95.9446C338.893 95.4679 338.141 95.195 337.36 95.1638C333.629 94.7149 329.861 94.6691 326.121 95.0272C325.789 92.1202 325.675 89.1925 325.78 86.2685V86.4505ZM324.893 105.856C324.324 104.855 323.209 97.0975 324.347 96.2558C324.529 96.4833 323.733 95.778 328.055 95.8235C331.102 95.9197 334.14 96.1931 337.155 96.6425C339.203 97.0065 339.544 97.9392 339.43 99.9185C339.43 103.581 339.544 103.217 339.43 104.355C339.43 104.673 339.294 105.515 339.043 105.697C334.364 106.544 329.57 106.536 324.893 105.674V105.856ZM345.8 131.495C339.566 129.721 333.856 129.493 330.012 121.576C327.532 116.48 328.897 115.002 326.645 114.342C325.809 114.242 324.986 114.06 324.188 113.796C324.188 112.272 326.099 109.087 326.462 107.472C330.241 107.923 334.059 107.923 337.837 107.472C340.113 107.13 341.318 106.743 340.954 102.125V98.599C344.526 97.507 352.102 95.7097 353.012 95.4595C353.017 96.6971 353.185 97.9286 353.512 99.1222C353.868 99.8728 354.481 100.47 355.241 100.806C355.363 100.86 355.495 100.885 355.628 100.88C355.761 100.874 355.891 100.838 356.007 100.774C356.124 100.71 356.224 100.62 356.301 100.511C356.377 100.403 356.427 100.277 356.447 100.146C356.97 98.0303 357.38 96.142 357.539 95.232C357.539 95.7325 357.744 93.6395 359.245 92.8205C361.52 91.6375 365.047 94.2765 365.297 98.0075C365.433 99.8275 363.613 103.126 362.248 106.925C361.429 109.201 366.389 110.179 368.118 111.02C368.755 112.499 368.368 114.16 369.233 115.047C370.53 115.847 371.953 116.424 373.441 116.753C375.011 121.782 376.152 126.934 376.854 132.155C371.075 138.229 369.779 139.685 368.232 141.255C362.188 146.998 357.063 153.635 353.034 160.934C351.419 151.447 348.348 143.075 348.007 140.322C347.734 138.184 348.189 134.407 347.188 132.383C347.036 132.142 346.833 131.937 346.593 131.784C346.353 131.631 346.082 131.532 345.8 131.495ZM346.46 139.208C347.552 143.257 350.464 156.407 351.306 161.685C349.918 159.592 348.212 156.134 348.212 156.134C348.152 156.01 348.066 155.902 347.959 155.816C347.853 155.731 347.728 155.671 347.594 155.64C347.461 155.609 347.323 155.609 347.189 155.64C347.056 155.67 346.931 155.73 346.824 155.815L345.163 157.089C345.8 151.174 346.437 145.145 346.528 139.208H346.46ZM345.8 137.183C345.595 153.927 342.251 168.851 340.886 185.527C336.336 241.583 336.336 238.83 336.791 258.668C334.334 240.741 330.899 205.865 329.01 186.96C330.353 185.936 336.837 181 337.565 179.498C337.906 178.77 337.565 178.019 335.927 178.019C333.079 178.234 330.22 178.234 327.372 178.019C329.102 170.967 338.998 145.236 341.637 138.411C342.979 138.025 344.094 137.638 345.8 137.183ZM240.035 218.719C243.561 215.011 287.81 206.366 290.222 204.023C293.611 200.61 302.939 179.43 312.448 163.368C320.525 149.718 324.915 144.668 340.636 138.867C336.859 148.217 329.488 166.508 326.167 177.155C325.962 177.815 325.666 178.542 326.167 178.975C327.418 180.203 332.65 179.475 335.654 179.521C333.538 181.637 327.714 185.936 327.714 185.936C327.602 186.019 327.513 186.13 327.457 186.258C327.401 186.385 327.38 186.526 327.395 186.664C328.351 197.22 334.22 260.215 336.768 269.361L332.673 268.314C330.026 267.014 327.152 266.242 324.21 266.039C329.397 240.241 327.532 233.029 328.169 218.969C328.169 217.513 322.026 188.257 321.981 188.029C321.981 187.933 321.942 187.84 321.874 187.772C321.806 187.704 321.713 187.665 321.617 187.665C321.52 187.665 321.428 187.704 321.359 187.772C321.291 187.84 321.253 187.933 321.253 188.029C321.64 197.994 324.461 207.481 326.394 218.355C319.114 225.18 311.493 234.621 299.094 237.693C291.427 239.626 255.528 247.452 250.75 247.794C246.837 243.426 239.421 221.631 240.035 218.719ZM235.713 221.745C235.713 221.745 238.443 221.085 238.397 220.653C240.522 228.647 243.197 236.484 246.405 244.108C244.337 244.748 242.223 245.227 240.081 245.541C238.784 245.541 239.694 246.679 236.532 239.171C234.583 234.504 232.912 229.726 231.527 224.861C231.14 223.292 230.48 223.451 235.713 221.745ZM209.072 226.545C210.87 224.566 212.166 224.27 230.139 226.545C231.737 231.97 233.675 237.288 235.94 242.47C232.242 245.353 228.002 247.465 223.473 248.681C223.337 247.702 223.018 247.998 223.792 248.067C224.445 248.085 225.094 247.957 225.691 247.691C226.288 247.425 226.818 247.029 227.242 246.531C227.665 246.033 227.972 245.447 228.138 244.815C228.305 244.183 228.328 243.521 228.205 242.88C228.023 240.605 221.517 235.873 219.674 234.576C220.768 234.801 221.903 234.714 222.95 234.326C223.044 234.295 223.121 234.229 223.166 234.142C223.211 234.054 223.219 233.953 223.189 233.859C223.159 233.766 223.093 233.688 223.005 233.643C222.918 233.598 222.816 233.59 222.722 233.62C218.9 234.621 215.033 230.071 214.532 229.935C212.781 229.503 213.873 233.575 209.982 236.009C209.414 236.373 207.23 235.554 207.093 234.439C206.807 233.059 206.836 231.633 207.179 230.265C207.522 228.898 208.169 227.627 209.072 226.545ZM183.638 233.711C186.55 232.665 201.383 228.069 205.66 229.161C205.179 230.979 205.07 232.875 205.341 234.735C205.486 235.326 205.756 235.879 206.134 236.356C206.511 236.833 206.987 237.223 207.529 237.499C208.071 237.776 208.667 237.932 209.274 237.957C209.882 237.983 210.489 237.877 211.052 237.647C212.637 236.59 213.829 235.038 214.441 233.234C216.466 234.462 226.522 241.128 226.385 243.494C226.385 245.086 225.543 246.429 223.951 246.292C222.607 245.81 221.336 245.144 220.174 244.313C219.006 243.38 217.775 242.528 216.489 241.765C216.285 241.659 216.048 241.632 215.825 241.69C215.602 241.748 215.409 241.886 215.281 242.078C215.154 242.27 215.103 242.502 215.137 242.73C215.171 242.958 215.288 243.165 215.465 243.312C215.465 243.312 217.171 244.586 219.06 245.814C221.903 248.089 222.882 250.182 219.355 251.252C218.803 251.415 218.224 251.464 217.652 251.393C217.081 251.323 216.53 251.135 216.034 250.842C215.454 249.697 214.685 248.659 213.759 247.771C213.346 246.708 212.605 245.804 211.644 245.191C210.682 244.577 209.551 244.286 208.413 244.358C207.23 244.495 207.139 245.086 207.252 244.54C207.798 241.833 204.34 240.195 201.929 240.65C198.039 241.424 195.877 246.565 194.603 250.319C193.83 251.957 196.878 250.137 183.57 254.869C183.945 248.261 183.945 241.638 183.57 235.031C183.456 233.461 183.41 233.825 183.638 233.711ZM195.24 250.569C196.492 247.885 199.244 242.857 202.179 242.402C203.317 242.197 205.614 242.971 205.364 244.131C204.872 247.211 203.451 250.069 201.292 252.321C201.565 252.776 194.444 252.912 195.24 250.569ZM208.117 246.224C208.663 245.678 211.848 246.793 211.939 248.499C212.098 251.343 209.391 254.732 207.048 256.302C206.297 256.825 203.339 254.414 202.657 253.436C204.282 250.89 206.108 248.478 208.117 246.224ZM211.962 253.799C212.121 253.572 214.396 248.522 214.783 252.708C214.942 254.346 212.508 255.21 210.915 254.983C211.285 254.608 211.635 254.213 211.962 253.799ZM262.558 283.375C252.98 290.814 251.615 300.596 253.185 312.267C237.806 306.807 226.067 303.167 221.494 302.78C215.305 302.908 209.145 303.67 203.112 305.055C203.726 298.936 203.453 277.46 199.108 273.046C194.763 268.633 178.997 262.604 173.059 260.329H174.401C174.925 260.056 174.06 257.667 176.039 257.531C178.428 257.394 181.772 258.304 182.864 257.349C183.191 256.853 183.379 256.28 183.41 255.688C185.913 254.892 191.805 253.094 194.785 252.321C195.787 253.116 196.96 253.668 198.212 253.932C199.463 254.197 200.759 254.167 201.997 253.845C202.68 255.369 205.865 258.714 207.844 257.622C208.393 257.304 208.918 256.947 209.414 256.552C210.853 256.951 212.381 256.887 213.782 256.37C214.523 256.168 215.184 255.744 215.677 255.154C216.169 254.564 216.468 253.837 216.534 253.072C217.726 253.414 218.996 253.359 220.153 252.916C221.31 252.472 222.292 251.665 222.95 250.615C227.938 249.494 232.606 247.253 236.6 244.062C237.032 244.995 237.442 245.792 237.783 246.338C237.896 246.529 238.055 246.69 238.246 246.805C238.436 246.921 238.653 246.987 238.875 246.997C241.15 247.225 246.519 244.722 246.746 244.722C247.526 246.348 248.496 247.875 249.636 249.272C250.045 249.682 250.728 249.568 251.365 249.5C257.962 248.704 290.722 241.651 299.481 239.467C310.856 236.623 318.273 228.638 326.076 221.04C325.644 234.098 327.35 240.468 322.185 266.107C311.447 267.442 300.808 269.479 290.335 272.204C281.167 274.821 270.247 277.414 262.558 283.397V283.375ZM295.75 328.26L294.954 327.942C294.772 316.385 297.638 305.738 306.101 297.844C306.85 298.034 307.61 298.178 308.376 298.276C299.663 305.738 296.228 316.612 295.75 328.26ZM331.672 290.336C324.847 294.34 326.849 296.501 320.593 297.161C315.581 297.505 310.545 297.114 305.646 296.001C301.688 294.727 303.781 293.202 307.921 292.747C308.627 292.861 314.178 292.907 316.794 292.747C317.008 292.713 317.202 292.604 317.343 292.439C317.483 292.275 317.56 292.065 317.56 291.849C317.56 291.632 317.483 291.423 317.343 291.258C317.202 291.094 317.008 290.984 316.794 290.95C313.843 290.696 310.878 290.651 307.921 290.814C306.038 290.787 304.163 290.565 302.325 290.154C302.142 289.856 302.035 289.517 302.016 289.167C301.996 288.818 302.063 288.469 302.211 288.152C304.6 286.719 315.861 287.265 317.727 287.197C317.946 287.162 318.146 287.05 318.29 286.881C318.435 286.712 318.514 286.497 318.514 286.275C318.514 286.053 318.435 285.838 318.29 285.669C318.146 285.5 317.946 285.388 317.727 285.354C313.994 285.433 310.26 285.235 306.556 284.762C304.964 284.489 301.255 283.693 301.528 282.078C302.029 279.166 308.012 281.668 312.221 281.373C315.19 281.328 318.13 280.774 320.911 279.735C321.12 279.671 321.294 279.528 321.397 279.336C321.499 279.144 321.521 278.919 321.458 278.711C321.394 278.503 321.251 278.328 321.059 278.226C320.867 278.123 320.642 278.101 320.434 278.165C317.587 278.849 314.699 279.351 311.789 279.666C311.604 279.628 311.44 279.524 311.327 279.373C311.214 279.222 311.16 279.035 311.174 278.847C311.207 278.422 311.315 278.006 311.493 277.619C312.666 276.089 314.241 274.915 316.043 274.229C322.504 271.545 327.418 274.229 334.812 274.707C335.74 278.914 336.917 283.061 338.338 287.128C336.071 288.035 333.873 289.107 331.763 290.336H331.672ZM340.363 287.561C339.566 284.876 336.609 275.139 336.313 272.864C337.487 272.29 338.724 271.855 339.999 271.567C341.045 275.458 342.979 282.214 344.23 285.991C343.009 286.601 341.748 287.126 340.454 287.561H340.363ZM346.801 287.561C345.595 284.831 342.023 272.113 341.204 268.928C345.117 265.721 380.244 248.453 385.476 243.198C387.114 241.56 381.586 210.734 388.07 185.368C391.528 171.718 398.307 150.264 412.298 150.742C421.899 151.061 427.382 158.386 430.498 167.531C436.208 184.367 433.934 207.731 433.934 207.503C433.934 226.591 427.109 255.278 413.459 268.928C403.153 279.257 353.216 288.721 346.892 287.629L346.801 287.561ZM440.599 304.851C437.938 304.145 425.721 299.641 420.557 299.209C393.734 296.934 395.395 291.838 378.81 284.558C387.91 282.283 408.135 277.005 414.846 270.361C429.02 256.302 435.572 227.319 435.503 207.708C436.03 200.84 436.03 193.942 435.503 187.074C440.531 215.602 443.625 296.206 440.599 304.851Z" fill="#F0F0F0"/>
<path fill-rule="evenodd" clip-rule="evenodd" d="M88.8387 151.061L81.3767 151.925C83.6516 154.064 85.7231 156.41 87.5647 158.932L89.635 152.107C89.6981 151.985 89.7253 151.847 89.7133 151.71C89.7014 151.573 89.6508 151.442 89.5675 151.332C89.4841 151.223 89.3714 151.139 89.2424 151.091C89.1134 151.043 88.9734 151.032 88.8387 151.061ZM304.645 358.677C302.769 357.489 300.697 356.642 298.525 356.175C303.69 347.78 302.757 337.975 301.392 337.11C300.107 335.801 298.397 334.994 296.569 334.835C289.744 333.402 273.205 333.288 268.837 336.928C267.881 337.724 267.312 339.021 268.245 339.886C267.801 345.278 268.931 350.684 271.498 355.447C269.223 355.879 266.584 356.743 265.72 358.791C265.571 359.231 265.53 359.701 265.602 360.161C265.673 360.62 265.854 361.055 266.129 361.43C267.876 363.596 270.266 365.149 272.954 365.866C277.703 367.311 282.684 367.829 287.628 367.39C292.352 367.198 297.034 366.434 301.574 365.115C306.602 363.25 306.556 360.179 304.645 358.677ZM269.041 340.295C273.932 341.631 278.988 342.259 284.056 342.161C289.583 341.783 295.04 340.712 300.3 338.976C300.756 342.105 300.588 345.294 299.807 348.359C299.026 351.424 297.648 354.304 295.75 356.834C295.291 357.638 294.63 358.307 293.831 358.774C293.032 359.241 292.125 359.49 291.2 359.496C288.015 359.906 279.324 360.133 277.55 359.337C271.794 356.675 268.95 347.006 269.041 340.295ZM287.537 365.32C282.841 365.765 278.103 365.286 273.591 363.91C271.549 363.353 269.669 362.316 268.109 360.884C267.745 360.497 267.153 359.724 267.335 359.246C267.927 357.744 270.816 356.971 272.408 356.698C273.549 358.437 275.115 359.854 276.958 360.816C279.233 361.976 291.837 361.839 294.18 360.634C295.641 359.742 296.878 358.528 297.797 357.085C299.14 357.471 303.826 359.064 304.145 360.338C305.168 364.251 291.632 365.184 287.537 365.434V365.32Z" fill="#F0F0F0"/>
</svg>
