<svg width="441" height="441" viewBox="0 0 441 441" fill="none" xmlns="http://www.w3.org/2000/svg">
<path d="M155.904 331.801C159.58 330.499 163.346 329.467 167.172 328.714L167.635 330.412C167.686 330.612 167.808 330.786 167.978 330.904C168.149 331.021 168.355 331.074 168.561 331.051L183.709 329.287C187.876 319.784 195.528 305.385 195.638 305.164C195.528 301.57 195.638 298.549 195.638 295.11C186.972 298.329 170.942 304.437 162.563 308.34C162.374 308.462 162.227 308.64 162.144 308.85C162.061 309.059 162.046 309.29 162.1 309.508C162.1 309.508 162.254 310.06 162.453 310.853C158.352 310.853 146.07 310.258 143.115 313.058C142.656 313.698 142.43 314.477 142.476 315.263C142.299 318.306 143.821 341.944 146.246 348.89C147.503 352.528 150.149 352.131 151.957 348.647C154.05 343.4 155.393 337.885 155.948 332.264C155.948 331.977 155.882 331.999 155.904 331.801ZM153.368 312.066C156.058 311.846 156.896 311.89 162.673 311.713C163.71 315.638 165.849 323.708 166.951 327.832C163.061 328.434 159.221 329.326 155.463 330.5C154.292 324.418 153.592 318.255 153.368 312.066Z" fill="#F0F0F0"/>
<path d="M358.852 119.084C359.403 118.312 358.698 117.32 358.102 116.548C359.789 114.814 361.659 113.268 363.681 111.94C367.093 110.24 370.211 108.007 372.92 105.325C374.045 104.156 376.161 101.753 375.368 100.342C374.574 98.9305 373.163 98.8423 371.244 99.6581C372.075 98.7855 372.754 97.7792 373.251 96.6814C373.868 94.9615 372.413 93.5723 369.26 94.8512C370.406 93.0211 370.671 91.1027 368.73 90.1766C367.165 89.4269 364.872 91.213 363.549 92.3816C360.951 94.6515 358.512 97.0975 356.25 99.7022C354.861 96.7916 352.656 93.44 349.9 94.4984C347.144 95.5568 349.282 100.298 350.694 102.877L345.688 106.339C344.932 105.931 344.077 105.74 343.219 105.788C337.53 106.758 311.4 126.647 308.754 126.647C306.726 126.647 277.752 112.756 252.703 108.743C252.655 108.592 252.565 108.459 252.444 108.358C252.323 108.256 252.176 108.191 252.02 108.169C247.651 107.424 243.221 107.092 238.79 107.177C238.655 107.186 238.525 107.224 238.407 107.289C238.289 107.354 238.186 107.444 238.106 107.552H236.254C235.813 105.766 234.181 101.643 233.608 100.055C235.107 98.7541 237.18 98.0926 238.261 95.9978C240.245 92.117 240.157 85.3697 239.606 81.0479C242.097 79.1516 242.163 76.1087 241.59 72.9997C241.37 71.7428 240.686 68.8984 239.628 68.1928C239.032 67.7959 237.776 68.1928 236.695 68.5897C235.615 66.076 235.615 67.2226 236.056 66.2083C236.26 65.7408 236.38 65.2405 236.408 64.7309C237.577 65.0837 240.003 62.7464 239.165 59.6594C238.726 58.5544 238.187 57.4916 237.555 56.4842C237.864 55.7345 238.525 54.8305 236.453 52.0742C235.56 51.1113 234.401 50.4359 233.123 50.1338H232.109C231.377 49.0716 230.303 48.2931 229.066 47.9288C227.198 47.4526 225.218 47.7298 223.553 48.7006C223.112 49.0313 222.759 49.4723 222.318 49.781C221.321 49.1756 220.177 48.8555 219.011 48.8555C217.845 48.8555 216.7 49.1756 215.703 49.781C215.12 50.0101 214.588 50.3547 214.141 50.7942C213.694 51.2338 213.341 51.7592 213.102 52.3388C212.021 51.9661 210.875 51.8226 209.736 51.9175C208.597 52.0124 207.49 52.3436 206.487 52.8901C202.677 54.9556 199.828 58.4301 198.549 62.57C198.513 63.1943 198.513 63.82 198.549 64.4443H198.306C194.999 63.9592 190.787 71.809 194.161 77.9168C194.558 78.6445 195.065 79.328 195.55 80.1218C196.961 82.3268 196.41 82.9883 199.563 85.6784C200.489 86.4722 200.643 86.4061 201.217 86.8912C201.79 87.3763 201.569 87.1337 201.9 88.3685C202.081 89.0959 202.403 89.7803 202.85 90.3821C203.297 90.9839 203.858 91.4912 204.502 91.8745C204.736 94.0312 205.656 96.0561 207.126 97.6516C207.592 98.1725 208.134 98.6187 208.736 98.9746C208.898 99.066 209.079 99.1188 209.265 99.1289C209.926 103.23 210.742 108.566 211.095 110.837L209.133 111.896C206.565 112.929 204.068 114.13 201.658 115.49C201.469 115.621 201.335 115.817 201.283 116.041C198.945 117.276 196.74 118.445 195.484 119.194C177.976 129.58 128.253 198.045 127.746 201.176C127.69 201.356 127.69 201.548 127.746 201.728C128.459 202.865 129.327 203.896 130.326 204.793C130.018 205.354 129.648 205.879 129.223 206.358C124.813 209.247 118.198 213.546 114.648 217.383C114.399 217.605 114.213 217.888 114.106 218.204C114 218.521 113.978 218.859 114.043 219.186C114.107 219.514 114.256 219.818 114.475 220.071C114.693 220.323 114.973 220.514 115.288 220.624C115.949 220.845 116.06 220.779 120.359 218.419C119.178 219.456 118.211 220.715 117.515 222.124C117.228 223.337 118.331 224.042 119.72 223.822C120.501 223.617 121.246 223.289 121.925 222.851C121.527 223.466 121.316 224.182 121.316 224.913C121.316 225.645 121.527 226.361 121.925 226.975C124.13 229.753 129.907 220.999 132.95 218.838C134.185 220.404 135.86 224.064 138.528 223.094C140.844 222.234 138.308 217.141 138.528 215.663C139.426 214.802 140.384 214.006 141.395 213.282C143.096 214.543 145.041 215.437 147.106 215.906C150.744 215.906 188.714 177.583 191.603 174.518C190.566 184.264 185.341 226.093 186.443 234.229C186.95 237.912 195.792 238.441 199.519 238.639C198.394 265.099 197.645 305.186 197.446 305.605C191.603 318.196 190.015 321.635 188.053 325.45C184.481 332.286 169.443 357.511 167.745 363.244C167.502 364.148 167.48 364.501 168.428 366.176C165.587 369.164 162.95 372.339 160.534 375.68C159.322 377.885 164.525 398.436 168.208 405.712C169.046 407.344 170.413 409.858 172.243 409.791C177.755 409.593 177.733 389.792 177.579 384.257C177.578 384.087 177.515 383.922 177.403 383.794C178.402 382.303 179.492 380.875 180.666 379.517C181.367 379.999 182.104 380.427 182.871 380.796C183.621 381.126 184.459 380.553 185.076 380.046C192.419 374.269 232.02 324.921 240.51 301.636C244.368 291.008 249.506 276.323 250.961 265.915C251.851 259.335 251.933 252.67 251.204 246.07C251.204 245.977 251.241 245.887 251.307 245.821C251.373 245.755 251.463 245.717 251.557 245.717C251.65 245.717 251.74 245.755 251.806 245.821C251.872 245.887 251.91 245.977 251.91 246.07C253.014 252.708 253.229 259.463 252.549 266.158C250.917 280.6 239.517 310.699 233.432 321.768C238.68 320.798 249.352 318.681 254.511 317.137C271.71 311.911 287.586 296.322 288.976 278.814C289.425 270.566 289.425 262.3 288.976 254.052C288.827 242.666 287.347 231.336 284.566 220.294C289.24 217.758 293.518 214.781 294.907 212.047C297.884 206.204 290.012 172.577 288.292 163.14C297.707 164.176 313.738 166.051 321.213 160.207C329.768 153.328 348.246 133.968 358.852 119.084ZM176.388 383.045C172.419 380.641 166.863 374.93 166.025 370.454C166.929 369.308 167.877 368.249 168.759 367.058C171.747 371.619 175.473 375.65 179.784 378.988C178.573 380.272 177.439 381.626 176.388 383.045ZM351.686 103.495C351.8 103.422 351.882 103.308 351.914 103.177C351.947 103.046 351.929 102.907 351.862 102.789C351.09 101.356 348.775 96.3065 350.385 95.7332C351.311 95.3804 352.127 95.9537 352.81 96.7255C353.854 98.0497 354.667 99.5406 355.214 101.135C355.255 101.265 355.33 101.381 355.432 101.471C355.534 101.562 355.658 101.622 355.792 101.647C355.925 101.672 356.063 101.66 356.19 101.613C356.318 101.565 356.43 101.484 356.515 101.378C358.72 98.9305 363.879 93.3518 366.79 91.8524C368.995 90.7058 369.524 92.8226 364.122 97.7618C362.881 98.708 361.689 99.7162 360.55 100.783C360.487 100.869 360.453 100.973 360.453 101.08C360.453 101.187 360.487 101.291 360.55 101.378C360.55 101.951 361.013 102.591 361.807 101.995C363.724 100.313 365.749 98.7587 367.871 97.3429C368.953 96.5737 370.212 96.0884 371.531 95.9317C370.869 97.9603 364.717 103.473 364.188 104.09C364.02 104.241 363.918 104.451 363.904 104.676C363.89 104.901 363.964 105.122 364.112 105.293C364.259 105.463 364.467 105.569 364.692 105.588C364.917 105.606 365.14 105.535 365.313 105.391C367.76 103.804 372.038 100.099 373.515 100.65C374.993 101.202 370.605 105.303 369.502 106.273C363.174 111.764 364.806 108.236 357.485 115.688C354.298 112.198 350.639 109.17 346.614 106.692L351.686 103.495ZM255.879 208.96C255.504 205.917 255.041 202.632 254.467 199.214L255.416 197.957C259.826 192.29 261.149 183.272 260.73 176.194C263.089 186.535 264.963 196.7 266.396 206.799L255.879 208.96ZM223.09 133.461C217.291 129.051 207.964 121.444 202.54 116.24L211.36 111.83C219.459 119.395 226.391 128.118 231.932 137.716C240.404 153.28 246.689 169.938 250.609 187.219L219.165 142.744L223.267 134.233C223.321 134.101 223.333 133.957 223.302 133.819C223.27 133.68 223.196 133.555 223.09 133.461ZM237.996 108.456C238.128 108.699 239.65 111.94 241.965 117.607C241.965 117.849 241.546 123.362 241.348 125.302C238.533 124.187 235.879 122.704 233.454 120.892C233.939 118.974 236.122 110.264 236.276 108.302L237.996 108.456ZM230.168 132.138C230.323 131.741 230.477 131.212 230.653 130.594L232.131 131.366C232.969 131.917 232.638 130.241 233.388 135.092C233.388 135.908 233.608 136.812 233.652 137.805C232.638 135.974 231.381 134.012 230.19 132.138H230.168ZM228.933 130.286C224.768 124.377 220.026 118.896 214.777 113.924L231.381 121.135C230.742 122.656 229.815 127.309 228.956 130.286H228.933ZM245.89 143.207C243.685 137.187 241.987 130.462 241.149 128.698C241.199 128.148 241.199 127.594 241.149 127.044C241.468 127.163 241.802 127.237 242.141 127.265C242.354 127.267 242.561 127.193 242.723 127.055C242.885 126.917 242.992 126.725 243.023 126.515C243.2 125.787 243.486 122.105 243.531 121.289C249.945 137.484 255.3 154.078 259.561 170.968C247.103 144.464 249.021 152.137 245.912 143.207H245.89ZM264.125 185.3C259.098 161.2 250.256 131.146 240.201 108.875C243.894 108.877 247.58 109.172 251.226 109.757C253.1 126.515 251.535 125.942 252.792 126.603C254.048 127.265 261.612 130.308 262.736 130.771C262.626 132.469 264.213 181.023 264.147 185.3H264.125ZM238.746 69.604C239.895 72.1125 240.301 74.8981 239.914 77.6302C239.735 78.3255 239.366 78.9575 238.849 79.4556C238.331 79.9537 237.686 80.2985 236.984 80.4517C236.283 80.6048 235.552 80.5602 234.874 80.3229C234.197 80.0856 233.598 79.6649 233.145 79.1075C232.093 76.8912 231.301 74.5604 230.786 72.1618C231.381 71.39 237.731 69.8465 238.746 69.604ZM208.405 91.654C207.599 91.2873 206.775 90.9634 205.935 90.6838C205.372 90.4521 204.869 90.0945 204.465 89.6383C204.061 89.1821 203.766 88.6394 203.605 88.0519C203.443 87.4644 203.418 86.8477 203.531 86.249C203.645 85.6503 203.894 85.0855 204.26 84.598C205.649 83.4293 206.906 83.4955 208.052 85.2374C208.78 86.5825 208.758 86.6927 209.088 86.825C209.183 86.8668 209.286 86.8879 209.39 86.8868C209.493 86.8857 209.596 86.8624 209.69 86.8186C209.784 86.7747 209.867 86.7113 209.935 86.6325C210.002 86.5538 210.052 86.4616 210.081 86.362C210.408 84.9818 210.46 83.5508 210.235 82.1504C209.97 80.629 209.926 73.8817 209.97 73.6612C210.615 74.0007 211.338 74.1606 212.065 74.1242C216.056 73.9699 216.85 71.9192 218.438 70.2434C220.268 70.4198 220.643 71.3018 222.715 70.2434C223.686 69.6913 224.576 69.0088 225.361 68.2148C225.995 68.4743 226.607 68.784 227.192 69.1409C228.513 69.7764 230.003 69.9716 231.444 69.6978C232.885 69.4239 234.2 68.6955 235.196 67.6195C235.438 68.0825 235.659 68.5456 235.857 69.0307C233.831 69.6594 231.923 70.6207 230.212 71.8751C229.838 72.3382 230.389 74.8519 230.521 75.4472C228.674 75.6796 226.887 76.2555 225.251 77.1451C224.92 75.9985 224.193 73.8596 223.046 73.2643C222.701 73.1587 222.333 73.1587 221.988 73.2643C220.003 73.573 212.881 75.7118 212.021 76.8805C211.271 77.6963 213.41 84.0026 214.072 85.039C216.608 88.9639 224.038 87.8173 225.428 83.2309C225.772 81.6917 225.772 80.0955 225.428 78.5563C226.067 78.5563 227.985 77.8727 228.206 77.8066C229.727 81.2243 230.168 81.4228 231.932 85.1051C231.69 85.3036 231.293 85.6343 230.962 85.8548C229.397 86.8912 229.066 86.7148 229.154 87.1558C229.18 87.2433 229.236 87.3185 229.314 87.3672C229.391 87.4159 229.483 87.4348 229.573 87.4204C230.498 87.2882 231.403 87.0361 232.263 86.6707C232.778 86.4786 233.203 86.1012 233.454 85.6123C234.071 84.2231 230.653 78.9973 229.308 77.4317C229.573 77.4317 230.19 76.9907 230.653 76.7482C231.271 79.2178 231.69 81.1582 234.071 82.1284C234.759 82.3882 235.493 82.5065 236.228 82.4762C236.963 82.4459 237.684 82.2676 238.349 81.952C238.702 85.8328 238.635 92.1391 236.783 95.5789C235.835 97.3649 233.498 98.0485 231.998 99.5258C231.557 99.9448 231.844 100.54 231.998 101.18C234.446 107.993 234.49 107.971 234.358 108.853C233.709 112.514 232.803 116.124 231.646 119.657C231.094 119.415 224.898 116.129 212.771 111.411C212.396 108.919 210.389 95.623 209.75 93.1754C209.794 92.3155 209.684 92.117 208.405 91.5437V91.654ZM223.84 82.6576C223.134 85.061 219.805 86.0974 217.423 85.4359C215.042 84.7744 214.888 83.5616 213.763 80.6951C213.236 79.6001 212.872 78.4338 212.683 77.2333C213.41 76.4395 221.37 74.8078 222.363 74.6534C223.754 77.0343 224.276 79.8244 223.84 82.5473V82.6576ZM137.558 215.046C136.72 215.862 137.845 218.53 138.021 220.845C138.021 221.043 138.021 221.903 137.889 221.969C136.676 222.366 135.552 220.536 134.868 219.434C134.185 218.331 133.501 216.832 132.421 217.229C130.216 218.265 125.1 225.056 123.093 225.762C122.079 223.822 127.878 218.287 128.077 217.978C128.162 217.837 128.206 217.674 128.206 217.509C128.205 217.344 128.159 217.182 128.072 217.041C127.986 216.9 127.863 216.785 127.716 216.71C127.569 216.634 127.404 216.6 127.239 216.611C126.842 216.611 126.577 216.964 125.96 217.515C124.082 219.348 121.933 220.88 119.588 222.058C121.714 219.618 123.989 217.313 126.401 215.156C126.52 215.034 126.604 214.881 126.644 214.715C126.644 214.715 126.18 213.546 125.276 214.009C123.998 214.715 117.779 218.309 115.817 219.235C115.552 219.059 115.707 218.794 115.817 218.53C118.926 214.715 125.762 210.085 129.951 207.152C130.443 206.646 130.852 206.065 131.164 205.432C134.065 208.132 137.161 210.615 140.425 212.863C139.419 213.522 138.461 214.252 137.558 215.046ZM188.869 235.089C188.384 234.781 188.031 234.494 187.965 234.097C186.752 225.101 193.499 174.121 193.389 172.114C193.389 171.997 193.365 171.88 193.32 171.772C193.274 171.663 193.207 171.565 193.123 171.483C193.039 171.401 192.939 171.336 192.829 171.293C192.72 171.25 192.603 171.229 192.485 171.232C191.36 171.232 193.345 171.232 165.253 198.133C163.401 199.875 149.245 213.414 146.885 214.318C143.644 214.076 131.45 204.352 129.466 201.287C133.303 193.525 179.828 129.668 195.925 119.9C197.159 119.15 199.276 117.982 201.591 116.747C202.392 117.502 203.255 118.188 204.171 118.798C209.287 123.649 216.409 129.69 221.811 134.233L217.6 142.589C217.536 142.7 217.502 142.826 217.502 142.953C217.502 143.081 217.536 143.207 217.6 143.317C251.799 192.378 251.292 191.827 251.513 191.827C253.705 203.164 255.068 214.646 255.592 226.181C255.592 229.29 255.592 229.025 255.724 228.805C255.857 228.584 255.724 228.959 255.724 228.959C250.388 234.781 197.578 240.205 188.869 235.089ZM310.761 162.038C300.772 163.427 289.483 161.354 287.3 161.266C286.087 155.388 283.669 149.824 280.2 144.927C280.147 144.855 280.069 144.807 279.981 144.79C279.894 144.774 279.804 144.791 279.728 144.839C279.653 144.886 279.599 144.96 279.576 145.046C279.553 145.132 279.563 145.223 279.604 145.302C280.883 147.904 285.161 159.127 286.219 161.861C285.889 162.92 296.186 205.498 293.275 211.231C290.673 216.413 275.525 222.94 270.057 224.814C268.976 212.539 267.209 200.333 264.765 188.255C265.514 181.905 264.544 144.155 264.258 130.197C264.249 130.035 264.195 129.879 264.101 129.746C264.008 129.613 263.878 129.51 263.728 129.448L253.828 125.28C253.783 120.04 253.452 114.807 252.836 109.603C277.554 113.88 306.351 128.014 308.754 128.036C312.238 128.036 338.125 108.191 343.483 107.398C345.865 107.023 356.096 115.953 357.287 118.423C346.835 133.02 328.467 152.203 319.956 158.84C317.214 160.674 314.049 161.774 310.761 162.038Z" fill="#F0F0F0"/>
<path d="M221.569 78.2477C221.541 78.1029 221.485 77.9649 221.405 77.8417C221.324 77.7185 221.22 77.6123 221.098 77.5294C220.976 77.4465 220.839 77.3884 220.695 77.3584C220.55 77.3284 220.402 77.3271 220.257 77.3546C220.112 77.3821 219.974 77.4379 219.851 77.5187C219.728 77.5995 219.621 77.7038 219.539 77.8257C219.456 77.9475 219.397 78.0845 219.368 78.2287C219.338 78.373 219.336 78.5218 219.364 78.6666C219.805 80.8716 219.893 81.3788 220.863 81.3788C221.047 81.3794 221.227 81.3343 221.389 81.2475C221.55 81.1607 221.688 81.035 221.788 80.8817C221.889 80.7285 221.95 80.5525 221.966 80.3698C221.981 80.187 221.951 80.0033 221.877 79.8353C221.811 79.4825 221.613 78.4461 221.569 78.2477ZM228.316 92.8448C229.749 93.2637 231.116 92.5802 231.072 92.2274C231.028 91.8746 231.072 92.051 229.132 91.3233C227.831 90.8382 226.398 89.1183 225.891 89.3829C225.383 89.6475 226.155 91.0587 226.332 91.3233C226.803 92.039 227.502 92.575 228.316 92.8448ZM268.645 71.8973C265.757 84.0027 263.64 94.278 263.287 96.3287C263.053 97.2209 263.008 98.1522 263.155 99.0629C264.324 101.555 279.428 106.472 281.346 105.501C283.265 104.531 288.248 93.3078 294.047 81.7316C297.6 81.8451 301.154 81.5864 304.653 80.9598C308.337 80.284 311.922 79.1506 315.325 77.5862C322.778 74.1464 330.937 59.417 332.039 52.0081C332.866 43.9644 331.163 35.8631 327.166 28.8336C308.666 -3.24915 254.401 14.016 258.811 49.6488C260.071 57.8023 263.463 65.4778 268.645 71.8973ZM282.096 98.1588C282.096 98.5116 281.699 98.4675 279.891 98.1588C276.193 97.694 272.612 96.5503 269.329 94.7852C267.786 93.9473 267.367 93.7709 267.521 93.396C267.675 93.0212 268.006 93.1535 270.387 93.815C270.608 93.815 277.443 96.02 279.406 96.7035C281.942 97.8501 282.096 97.8501 282.096 98.1588ZM281.699 62.2835C284.054 62.4056 286.4 61.9196 288.513 60.8722C290.476 61.8234 292.6 62.3993 294.775 62.5701C291.07 69.4718 283.551 83.5397 281.126 91.0367L271.777 88.4568C273.982 83.0325 278.855 70.3317 281.655 62.2835H281.699ZM280.927 60.4533C279.281 60.2046 277.762 59.4229 276.603 58.228C275.444 57.0332 274.709 55.4911 274.511 53.8383C273.893 49.4283 276.716 44.4891 280.971 45.6577C283.639 46.3854 283.97 48.5022 283.507 51.1702C283.11 53.1107 281.677 57.9837 280.883 60.3651L280.927 60.4533ZM286.925 55.1613C287.16 53.7184 287.702 52.3426 288.513 51.1262C288.898 50.463 289.462 49.9214 290.141 49.5628C290.819 49.2042 291.584 49.043 292.349 49.0975C293.981 49.5826 294.687 52.6697 293.341 54.6101C292.049 56.3255 290.44 57.7776 288.601 58.8878C287.968 58.5164 287.464 57.9603 287.157 57.2942C286.849 56.628 286.753 55.8837 286.881 55.1613H286.925ZM266.661 27.1358C276.539 15.2508 295.128 10.5321 308.556 15.4272C315.851 17.9313 321.987 23.0015 325.821 29.6936C329.623 36.3825 331.249 44.0888 330.474 51.7436C329.459 58.6011 321.654 72.8454 314.796 75.9986C308.526 78.8585 301.685 80.2463 294.797 80.0558C294.047 80.0558 293.253 80.0557 292.967 80.585C291.666 83.2309 289.284 88.3466 286.947 93.1535C285.333 92.3741 283.659 91.7253 281.942 91.2131C284.499 83.8925 292.57 69.5159 296.406 62.548C299.731 62.8329 303.072 62.2557 306.108 60.8722C306.929 60.4405 307.609 59.7837 308.069 58.9789C308.529 58.1742 308.75 57.2549 308.706 56.3289C308.662 55.403 308.355 54.5087 307.821 53.7512C307.286 52.9937 306.547 52.4043 305.689 52.0522C302.272 50.3764 299.207 54.3895 297.421 57.7632C296.936 58.6452 296.384 59.6815 295.767 60.8502C293.984 60.733 292.225 60.3694 290.541 59.7698C292.218 58.5913 293.705 57.1636 294.951 55.5362C295.649 54.4819 296.003 53.2369 295.964 51.9731C295.924 50.7092 295.493 49.4888 294.731 48.4802C294.132 47.7845 293.299 47.3312 292.39 47.2054C291.481 47.0795 290.557 47.2897 289.791 47.7966C288.247 48.7455 287.01 50.1199 286.227 51.7548C285.445 53.3897 285.151 55.2157 285.381 57.0135C285.621 58.0283 286.168 58.9445 286.947 59.6375C285.501 60.2365 283.948 60.5365 282.383 60.5195C283.265 57.9176 284.698 53.2209 285.073 51.3026C285.308 50.2089 285.36 49.0838 285.227 47.973C285.056 47.0195 284.614 46.1355 283.953 45.4275C283.292 44.7194 282.44 44.2175 281.501 43.9819C276.143 42.4605 272.196 48.392 272.967 53.9265C273.185 55.9099 274.037 57.7702 275.395 59.2318C276.753 60.6934 278.546 61.6784 280.508 62.0409C277.686 69.9789 273.276 82.79 271.071 88.2584L266.22 87.0015C269.329 71.3901 269.704 71.765 269.263 71.5665C264.253 65.1787 261.047 57.5643 259.98 49.5165C259.46 45.526 259.786 41.4708 260.938 37.6148C262.089 33.7587 264.039 30.1883 266.661 27.1358ZM297.266 60.9825C298.81 58.1822 301.897 52.0522 304.896 53.5517C305.495 53.7933 306.018 54.1942 306.406 54.711C306.795 55.2279 307.035 55.841 307.101 56.4843C307.057 60.3651 301.015 61.0487 297.178 60.9825H297.266ZM381.674 70.7066C384.331 69.1438 387.469 68.6103 390.494 69.2072C393.816 69.2666 396.989 70.5949 399.363 72.9197C401.737 75.2444 403.132 78.3894 403.261 81.7095C401.263 80.5504 398.927 80.1143 396.646 80.4747C391.111 80.9598 383.879 83.9586 384.849 89.2947C385.643 93.7047 391.464 93.1094 395.874 91.9187C400.284 90.728 403.79 88.5671 404.694 84.3114C410.052 88.2143 411.309 95.0498 411.529 101.731C411.529 101.824 411.567 101.914 411.633 101.98C411.699 102.047 411.789 102.084 411.882 102.084C411.976 102.084 412.066 102.047 412.132 101.98C412.198 101.914 412.235 101.824 412.235 101.731C412.389 94.256 411.044 86.9354 404.937 82.6797C404.999 80.7653 404.673 78.858 403.977 77.0734C403.282 75.2887 402.231 73.6638 400.889 72.2971C399.547 70.9304 397.941 69.8502 396.17 69.122C394.398 68.3938 392.497 68.0327 390.582 68.0606C387.521 67.6136 384.4 68.2533 381.762 69.8687C380.946 70.2656 381.321 70.8609 381.674 70.7066ZM401.783 86.5164C399.292 89.7798 392.236 91.4777 388.972 90.9264C387.76 90.728 386.767 90.2208 386.503 88.964C385.709 84.554 393.316 82.1505 397.858 81.9962C399.708 81.8544 401.553 82.3272 403.106 83.3412C402.94 84.494 402.484 85.5862 401.783 86.5164ZM371.575 44.9301C373.934 42.0195 372.347 36.948 365.754 36.926C363.196 36.926 361.961 39.5279 362.137 42.0195C362.534 47.951 369.216 47.7746 371.575 44.9301ZM363.681 41.9092C363.681 40.4539 364.365 38.5577 365.886 38.5797C369.436 38.5797 371.068 40.2335 371.068 42.0636C370.98 46.2311 363.394 48.3919 363.681 41.9092ZM362.777 291.89C343.395 284.151 334.399 321.614 318.567 353.807C318.467 355.16 318.511 356.52 318.699 357.864C318.699 361.237 319.074 383.574 321.036 386.11C321.565 387.124 323.793 386.11 324.829 385.47C333.631 380.021 341.925 373.793 349.613 366.86C349.679 366.785 349.728 366.698 349.758 366.603C349.789 366.508 349.799 366.408 349.789 366.309C353.891 360.466 369.26 330.037 372.986 314.778C375.588 303.974 373.008 295.925 362.777 291.89ZM369.701 319.894C359.324 318.564 349.292 315.287 340.132 310.236C345.291 300.468 351.664 289.332 362.182 293.522C373.89 298.174 373.648 307.81 369.701 319.827V319.894ZM333.009 377.224C332.332 376.656 331.593 376.168 330.804 375.768C327.825 374.253 324.382 373.923 321.169 374.842C320.948 372.218 319.691 355.152 319.691 354.997C336.207 361.039 331.113 358.415 347.474 366.551C345.754 368.183 339.294 372.703 333.009 377.18V377.224ZM344.387 313.411C346.538 314.586 348.746 315.653 351.002 316.608C345.948 324.547 341.482 332.845 337.64 341.436C333.936 349.176 334.068 349.132 330.297 357.577C328.092 356.871 325.887 356.21 323.682 355.548C326.064 350.808 342.998 316.145 344.387 313.367V313.411ZM331.157 357.798C338.323 344.942 345.622 328.956 351.884 316.895C354.089 317.821 356.294 318.571 358.499 319.232C357.331 321.437 353.913 327.302 353.009 329C352.105 330.698 343.042 348.559 342.403 349.926C341.388 352.131 338.61 358.283 337.75 360.245C335.501 359.253 333.34 358.503 331.069 357.753L331.157 357.798ZM338.544 360.532C339.889 358.084 345.424 347.809 346.107 346.486C347.143 344.435 358.698 320.82 359.337 319.453C361.366 320.026 363.505 320.511 364.872 320.776C360.837 331.801 349.216 353.035 345.027 363.509C341.212 361.722 340.352 361.281 338.456 360.488L338.544 360.532ZM339.889 310.875L343.836 313.08C335.882 326.626 328.954 340.748 323.109 355.328L319.801 354.314C332.613 327.016 333.208 323.444 339.801 310.831L339.889 310.875ZM348.974 365.427L345.644 363.839C349.238 356.783 360.484 338.68 365.621 320.93C366.856 321.15 368.069 321.349 369.238 321.503C363.571 336.623 356.768 351.291 348.885 365.383L348.974 365.427ZM279.891 379.737C280.77 379.01 281.398 378.024 281.687 376.921C281.976 375.817 281.911 374.65 281.501 373.585C281.314 372.049 280.609 370.622 279.503 369.54C278.397 368.457 276.955 367.783 275.415 367.629C273.875 367.475 272.329 367.85 271.03 368.692C269.731 369.534 268.758 370.793 268.271 372.262C265.448 370.432 262.383 368.492 259.451 366.64C261.656 363.707 268.138 365.008 268.8 367.411C268.814 367.505 268.866 367.589 268.942 367.645C269.019 367.701 269.114 367.724 269.208 367.709C269.301 367.694 269.385 367.643 269.441 367.567C269.497 367.49 269.52 367.395 269.505 367.301C269.175 363.464 261.193 361.215 257.973 365.736C255.129 363.994 251.601 361.877 248.646 360.267C251.182 358.062 256.849 359.297 257.466 361.59C257.495 361.669 257.551 361.734 257.624 361.775C257.697 361.816 257.782 361.83 257.864 361.814C257.946 361.798 258.02 361.754 258.072 361.688C258.125 361.623 258.152 361.541 258.15 361.458C257.863 357.886 250.476 355.482 247.125 359.407C245.72 358.62 244.244 357.971 242.715 357.467C242.435 357.351 242.128 357.318 241.831 357.373C241.534 357.428 241.259 357.568 241.039 357.776C235.46 364.721 216.652 382.758 207.964 384.853C207.745 384.886 207.54 384.976 207.367 385.113C207.194 385.251 207.061 385.432 206.981 385.638C206.9 385.843 206.875 386.067 206.909 386.285C206.942 386.503 207.032 386.709 207.17 386.882C209.078 388.818 211.263 390.46 213.653 391.755C211.448 393.96 209.728 395.944 208.449 397.377C207.787 398.083 207.435 411.578 208.008 414.554C208.093 414.846 208.281 415.096 208.537 415.26C211.315 417.156 247.103 432.635 250.763 430.563C253.21 429.173 282.427 398.766 282.89 397.84C283.595 396.385 283.353 386.683 283.309 382.802C283.132 381.634 280.949 380.377 279.891 379.737ZM209.331 408.865V403.948C218.482 408.358 239.429 417.355 247.367 419.868C249.396 420.53 249.572 420.442 250.631 419.868C256.694 415.987 278.105 391.865 282.03 388.182V392.835C270.123 404.764 249.903 425.667 249.528 424.477C247.345 424.344 211.227 409.747 209.331 408.865ZM279.34 372.306C280.132 373.642 280.558 375.163 280.575 376.716C280.567 377.211 280.446 377.696 280.22 378.136C279.994 378.576 279.671 378.958 279.274 379.252C277.421 378.017 273.915 375.724 269.77 373.034C272.041 368.558 277.091 368.492 279.252 372.306H279.34ZM208.78 386.418C218.173 383.64 236.011 366.441 242.009 358.988C243.453 359.39 244.844 359.96 246.154 360.686C243.949 364.787 246.309 369.286 247.147 368.646C247.61 368.293 246.772 368.161 246.64 366C246.583 364.422 246.941 362.856 247.676 361.458C250.719 363.045 254.291 365.118 257.312 366.86C255.46 370.983 257.687 375.063 258.458 374.467C259.23 373.872 258.106 374.004 257.973 371.843C257.919 370.426 258.191 369.016 258.767 367.72C261.876 369.55 265.051 371.447 267.962 373.233C267.513 374.331 267.335 375.522 267.443 376.704C267.55 377.885 267.94 379.024 268.579 380.024C268.608 380.062 268.644 380.093 268.686 380.117C268.727 380.141 268.772 380.156 268.819 380.162C268.866 380.168 268.914 380.165 268.96 380.153C269.006 380.14 269.049 380.119 269.086 380.09C269.124 380.061 269.156 380.025 269.179 379.984C269.203 379.943 269.218 379.897 269.225 379.85C269.231 379.803 269.228 379.755 269.215 379.709C269.203 379.664 269.182 379.621 269.153 379.583C268.756 378.707 268.561 377.754 268.58 376.792C268.599 375.831 268.832 374.886 269.263 374.026C274.401 377.157 278.546 379.781 279.825 380.641C279.582 380.862 256.584 401.324 248.756 407.41C243.619 406.065 216.652 392.681 208.78 386.418ZM209.618 398.7C219.606 403.11 242.296 413.342 247.522 414.334C248.426 414.51 248.778 414.576 250.498 413.209C257.841 407.322 281.721 382.339 281.942 382.604C281.952 382.67 281.952 382.737 281.942 382.802V387.212C277.024 391.159 249.682 419.868 249.241 418.501C247.036 418.501 211.205 403.882 209.375 403.066C209.331 402.14 209.529 399.671 209.618 398.7ZM249.771 429.085C247.566 430.342 213.984 416.693 209.485 413.915C209.316 412.51 209.235 411.096 209.243 409.681C218.901 414.444 246.992 426.307 249.572 426.197C253.343 425.998 280.001 395.988 281.898 393.893C281.919 395.02 281.808 396.145 281.567 397.245C281.192 397.973 251.226 428.269 249.771 429.085ZM67.0864 304.789C67.2408 307.149 67.351 309.199 67.351 311.118C67.351 311.41 67.4672 311.691 67.674 311.897C67.8807 312.104 68.1611 312.22 68.4535 312.22C68.7459 312.22 69.0264 312.104 69.2331 311.897C69.4399 311.691 69.556 311.41 69.556 311.118C69.556 309.067 69.4458 307.038 69.2914 304.635C69.271 304.343 69.1352 304.07 68.914 303.878C68.6927 303.686 68.4042 303.589 68.1118 303.61C67.8194 303.63 67.5471 303.766 67.3548 303.987C67.1625 304.208 67.066 304.497 67.0864 304.789ZM403.062 260.579C402.918 260.587 402.777 260.625 402.648 260.688C402.519 260.752 402.403 260.841 402.309 260.95C402.214 261.058 402.142 261.185 402.098 261.322C402.053 261.459 402.036 261.604 402.048 261.748C402.18 263.776 402.313 265.959 402.313 268.076C402.313 268.369 402.429 268.649 402.635 268.856C402.842 269.062 403.123 269.179 403.415 269.179C403.707 269.179 403.988 269.062 404.195 268.856C404.401 268.649 404.518 268.369 404.518 268.076C404.518 265.871 404.385 263.666 404.231 261.593C404.223 261.449 404.186 261.309 404.122 261.179C404.058 261.05 403.969 260.934 403.86 260.84C403.752 260.745 403.625 260.674 403.488 260.629C403.351 260.584 403.206 260.567 403.062 260.579ZM61.3755 299.299C61.6679 299.299 61.9483 299.183 62.1551 298.976C62.3618 298.769 62.478 298.489 62.478 298.196C62.478 297.904 62.3618 297.624 62.1551 297.417C61.9483 297.21 61.6679 297.094 61.3755 297.094C58.7074 297.094 56.4804 297.292 54.2754 297.248C53.9809 297.248 53.6982 297.364 53.4879 297.57C53.2776 297.776 53.1566 298.056 53.1508 298.351C53.1508 298.643 53.267 298.924 53.4738 299.13C53.6805 299.337 53.9609 299.453 54.2533 299.453C56.5245 299.497 59.0161 299.409 61.3755 299.299ZM396.227 254.052C393.581 254.052 391.354 254.207 389.127 254.229C388.834 254.229 388.554 254.345 388.347 254.552C388.14 254.758 388.024 255.039 388.024 255.331C388.024 255.624 388.14 255.904 388.347 256.111C388.554 256.318 388.834 256.434 389.127 256.434C391.508 256.434 393.978 256.434 396.359 256.257C396.651 256.24 396.925 256.107 397.119 255.888C397.314 255.668 397.413 255.381 397.395 255.089C397.378 254.796 397.245 254.523 397.026 254.328C396.807 254.134 396.519 254.035 396.227 254.052ZM66.4911 285.672C66.6234 287.701 66.7557 289.884 66.7557 292C66.7613 292.291 66.8793 292.568 67.0849 292.774C67.2904 292.979 67.5676 293.097 67.8582 293.103C68.1506 293.103 68.431 292.987 68.6378 292.78C68.8445 292.573 68.9607 292.293 68.9607 292C68.9607 289.795 68.8284 287.59 68.6961 285.518C68.6756 285.225 68.5398 284.953 68.3186 284.761C68.0974 284.568 67.8088 284.472 67.5164 284.492C67.224 284.513 66.9517 284.649 66.7594 284.87C66.5672 285.091 66.4706 285.38 66.4911 285.672ZM403.922 248.959C403.922 246.754 403.79 244.549 403.636 242.476C403.615 242.184 403.479 241.911 403.258 241.719C403.037 241.527 402.748 241.43 402.456 241.451C402.164 241.471 401.891 241.607 401.699 241.828C401.507 242.049 401.41 242.338 401.431 242.63C401.563 244.659 401.695 246.842 401.695 248.959C401.695 249.251 401.811 249.532 402.018 249.738C402.225 249.945 402.505 250.061 402.798 250.061C403.092 250.061 403.375 249.946 403.585 249.74C403.795 249.534 403.916 249.253 403.922 248.959ZM82.764 299.012C82.9088 299.007 83.0511 298.972 83.1827 298.912C83.3143 298.851 83.4326 298.765 83.5309 298.658C83.6292 298.552 83.7056 298.427 83.7556 298.291C83.8056 298.155 83.8283 298.01 83.8224 297.866C83.8001 297.577 83.6696 297.308 83.4569 297.111C83.2442 296.915 82.9652 296.806 82.6758 296.807C80.0077 296.918 77.7807 297.006 75.5536 296.962C75.2612 296.962 74.9808 297.078 74.7741 297.285C74.5673 297.491 74.4511 297.772 74.4511 298.064C74.4511 298.357 74.5673 298.637 74.7741 298.844C74.9808 299.05 75.2612 299.167 75.5536 299.167C77.913 299.211 80.3826 299.122 82.764 299.012ZM417.615 253.766C415.41 253.876 412.963 253.942 410.515 253.942C410.37 253.936 410.224 253.96 410.088 254.011C409.952 254.063 409.828 254.142 409.723 254.242C409.617 254.343 409.534 254.465 409.477 254.599C409.42 254.733 409.391 254.877 409.391 255.023C409.391 255.317 409.506 255.6 409.712 255.81C409.918 256.02 410.199 256.141 410.493 256.147C413.007 256.147 415.035 256.147 417.703 255.971C417.848 255.965 417.991 255.931 418.122 255.87C418.254 255.809 418.372 255.723 418.47 255.617C418.569 255.51 418.645 255.385 418.695 255.249C418.745 255.113 418.768 254.969 418.762 254.824C418.735 254.537 418.603 254.271 418.391 254.075C418.179 253.88 417.903 253.77 417.615 253.766ZM32.0931 233.678C32.3797 233.899 94.5607 224.682 97.2288 223.05C97.3765 222.942 97.4945 222.799 97.5716 222.633C97.6488 222.467 97.6825 222.284 97.6698 222.102C97.6698 219.257 93.9433 192.555 92.1573 185.896C91.9368 185.08 91.7163 184.264 91.2091 183.977C87.8355 181.949 28.3887 193.15 24.8386 195.443C24.7424 195.5 24.6593 195.577 24.5947 195.668C24.5301 195.759 24.4855 195.863 24.4638 195.973C23.7141 198.641 30.1747 232.355 32.0931 233.678ZM25.8088 196.502C30.0424 194.583 83.9988 184.705 90.1728 185.477C91.6722 189.336 95.6853 217.604 95.9499 221.749C92.8849 222.653 32.931 232.95 32.7105 232.995C32.49 233.039 32.4679 233.303 32.0049 231.914C30.0645 226.093 25.6986 201.485 25.8088 196.502Z" fill="#F0F0F0"/>
<path d="M102.08 225.012C102.2 224.79 102.253 224.537 102.234 224.285C102.234 220.779 97.2068 181.861 95.4207 178.752C95.2807 178.522 95.0825 178.334 94.8463 178.206C94.61 178.079 94.3442 178.016 94.0757 178.024C86.6889 177.12 24.3756 189.291 20.2743 192.136C19.701 192.533 19.7892 193.525 19.8554 194.583C20.2082 200.383 26.4704 238.529 28.6754 238.309C28.9179 238.309 28.8297 238.132 28.2564 239.301C24.8166 246.379 18.2898 269.046 18.4221 273.611C18.4221 275.529 18.8631 278.021 20.7594 277.888C34.3643 276.213 101.066 265.629 120.249 261.682C120.999 261.527 121.484 260.844 121.462 259.719C121.235 257.846 120.667 256.03 119.786 254.361C117.096 249.312 105.939 229.312 102.08 225.012ZM28.8077 237.625C27.0878 235.42 20.7594 197.428 21.2445 193.216C26.0955 190.703 87.5709 178.818 94.0095 179.788C95.7735 184.639 100.338 219.676 100.625 223.888C92.8188 226.578 38.7743 235.31 28.8077 237.625ZM29.7779 238.287C31.6301 237.824 94.7151 227.262 100.492 225.74C103.645 228.673 117.89 254.008 118.816 256.169C106.159 258.374 31.0788 270.921 20.0318 272.596C20.1861 265.915 27.0437 242.564 29.7779 238.287Z" fill="#F0F0F0"/>
<path d="M38.0687 261.153C39.987 260.866 80.6913 255.971 95.3987 251.98C95.4893 251.956 95.567 251.898 95.6145 251.817C95.6621 251.737 95.6756 251.641 95.6523 251.55C95.6289 251.459 95.5704 251.382 95.4898 251.334C95.4091 251.287 95.3129 251.273 95.2223 251.296C92.3337 251.892 57.0978 256.588 38.0246 260.469C37.9719 260.46 37.9177 260.462 37.8662 260.477C37.8147 260.491 37.7672 260.518 37.7272 260.553C37.6873 260.589 37.656 260.633 37.6357 260.683C37.6154 260.732 37.6066 260.786 37.6101 260.839C37.6135 260.892 37.6291 260.944 37.6556 260.991C37.6821 261.037 37.7188 261.077 37.763 261.108C37.8072 261.138 37.8577 261.158 37.9106 261.165C37.9636 261.173 38.0176 261.169 38.0687 261.153ZM67.8141 107.729C66.9904 109.589 66.2978 111.505 65.7414 113.462C65.7086 113.776 65.7952 114.091 65.984 114.344C68.211 117.695 91.0328 143.428 96.9863 147.044C97.8021 147.551 98.7723 147.904 99.3677 147.176C103.692 141.795 109.337 137.624 115.751 135.071C120.971 133.224 126.445 132.19 131.98 132.006C136.39 131.609 137.161 131.168 138.859 128.279C140.862 124.478 143.519 121.059 146.709 118.18C150.776 114.624 155.291 111.615 160.137 109.228C160.356 109.105 160.526 108.911 160.622 108.68C160.718 108.448 160.734 108.191 160.667 107.949C159.921 106.053 158.936 104.259 157.734 102.613C158.528 102.349 159.41 102.106 159.41 101.312C159.41 99.1072 140.182 71.2801 134.846 66.0322C134.295 65.481 133.501 64.7533 132.773 64.7974C121.748 65.4148 111.01 75.8224 104.792 84.907C97.6698 84.6424 93.0614 84.003 84.947 87.4207C79.2186 89.8523 74.0539 93.4405 69.7766 97.9606C69.1151 98.6442 64.6169 103.407 64.5507 103.782C64.4846 104.157 64.6169 104.157 67.8141 107.729ZM156.014 107.111C146.819 108.677 140.954 116.328 136.632 124.641C134.714 128.346 134.89 128.522 132.862 128.478C129.314 128.277 125.756 128.41 122.234 128.875C119.65 129.261 117.11 129.896 114.648 130.771C109.048 132.756 102.631 139.106 99.2133 143.825C99.1407 143.922 99.0484 144.002 98.9425 144.061C98.8365 144.12 98.7193 144.156 98.5986 144.166C98.4778 144.177 98.3562 144.161 98.2418 144.122C98.1273 144.082 98.0226 144.018 97.9344 143.935C90.7682 136.548 78.0894 123.583 71.717 116.13C71.4083 115.799 71.9375 115.314 72.2462 115.667C76.3695 120.077 87.0197 130.639 98.4416 142.127C102.3 137.21 108.254 131.256 114.141 129.183C117.352 128.038 120.692 127.298 124.086 126.978C127.264 126.737 130.455 126.737 133.633 126.978C134.934 125.479 141.373 108.456 155.97 106.56C156.013 106.591 156.048 106.632 156.073 106.679C156.098 106.726 156.112 106.777 156.114 106.83C156.116 106.883 156.106 106.936 156.085 106.985C156.064 107.033 156.032 107.077 155.992 107.111H156.014ZM132.751 66.5835C137.161 69.6705 155.11 96.2407 157.447 100.893C153.392 102.178 149.476 103.87 145.761 105.943C142.243 107.706 139.162 110.233 136.744 113.338C134.325 116.443 132.63 120.048 131.781 123.891C123.865 111.014 112.818 96.8361 105.476 86.4064C105.917 86.1198 118.309 67.4434 132.751 66.5835ZM85.4321 88.6335C93.4803 85.3921 97.9344 86.1418 104.594 86.4285C111.209 97.7181 123.093 113.638 130.921 124.068C123.696 122.358 116.094 123.404 109.599 127C105.696 129.205 100.933 134.497 98.0006 137.783C93.767 134.387 69.3356 108.368 65.4107 103.958C71.4524 97.1227 77.031 91.9851 85.4321 88.5453V88.6335ZM45.0806 144.707C44.5356 144.324 43.8913 144.108 43.2259 144.085C42.5606 144.061 41.9027 144.231 41.3321 144.574C40.9166 144.76 40.5416 145.025 40.2286 145.355C39.9156 145.685 39.6708 146.074 39.508 146.499C39.3452 146.924 39.2677 147.377 39.2799 147.831C39.2921 148.286 39.3938 148.734 39.5791 149.15C39.7644 149.565 40.0298 149.94 40.36 150.253C40.6902 150.566 41.0789 150.811 41.5037 150.974C41.9286 151.137 42.3814 151.214 42.8362 151.202C43.291 151.19 43.739 151.088 44.1545 150.903C44.8183 150.758 45.4223 150.414 45.8864 149.918C46.3506 149.422 46.6529 148.796 46.7533 148.124C46.8538 147.452 46.7476 146.765 46.4488 146.155C46.1501 145.545 45.6729 145.04 45.0806 144.707ZM43.6253 149.117C42.0818 149.602 41.1557 149.117 40.7808 148.367C40.0752 146.801 40.9572 144.398 43.2504 145.104C44.8601 145.699 46.161 148.411 43.6253 149.227V149.117ZM157.205 43.8058C157.844 45.1068 160.821 44.6217 162.122 44.2027C162.806 43.9822 163.247 43.7397 163.313 43.0782C163.511 41.4244 163.732 27.0919 162.982 25.7028C162.904 25.5571 162.786 25.4375 162.641 25.3591C162.495 25.2806 162.33 25.2468 162.166 25.2618C159.813 25.2552 157.473 25.597 155.22 26.2761C154.316 26.8273 156.411 42.3505 157.205 43.8058ZM155.683 26.8053C157.72 26.5139 159.78 26.4179 161.835 26.5186C161.968 28.1503 161.615 42.2844 161.593 42.5049C160.661 42.8387 159.667 42.9593 158.682 42.8577C158.528 42.3505 158.263 40.9834 157.932 39.2635C156.961 35.1539 156.21 30.9952 155.683 26.8053ZM42.9417 126.096C43.1533 126.205 43.3876 126.261 43.6253 126.261C43.863 126.261 44.0973 126.205 44.3088 126.096C45.1607 125.571 45.8363 124.803 46.2492 123.891C46.3053 123.746 46.3226 123.588 46.2994 123.433C46.2762 123.278 46.2134 123.132 46.1169 123.009C45.0585 121.753 33.5043 108.368 32.0931 109.206C30.3605 110.328 28.7166 111.581 27.176 112.955C27.1139 113.01 27.0641 113.078 27.03 113.154C26.9958 113.23 26.9779 113.312 26.9775 113.396C26.9334 114.542 39.7665 124.818 42.9417 126.096ZM32.3577 109.779C33.9674 110.948 39.3917 117.651 44.4191 123.583C44.2028 123.923 43.935 124.228 43.6253 124.487C38.3396 121.104 33.2929 117.361 28.521 113.285C29.7173 112.029 30.9993 110.858 32.3577 109.779ZM66.9983 61.1371C67.4834 52.5817 72.4667 48.6127 77.6705 47.5984C76.1931 53.0227 76.4357 60.0787 81.7938 60.9828C84.3516 61.4017 85.6085 60.0787 87.4607 58.5352C95.3766 51.9202 88.9821 45.3052 80.0519 45.7683C83.3814 36.6396 91.0769 29.2087 101.286 28.9662C101.38 28.9662 101.469 28.929 101.535 28.8628C101.602 28.7967 101.639 28.7069 101.639 28.6134C101.639 28.5198 101.602 28.4301 101.535 28.3639C101.469 28.2977 101.38 28.2606 101.286 28.2606C90.261 28.0401 81.5954 35.9781 78.1776 45.9006C72.2903 46.9149 66.447 51.3249 66.2927 61.0048C66.284 61.0511 66.2845 61.0987 66.2942 61.1449C66.3039 61.191 66.3226 61.2348 66.3492 61.2737C66.3759 61.3126 66.4099 61.3458 66.4493 61.3716C66.4888 61.3974 66.533 61.4151 66.5793 61.4238C66.6257 61.4324 66.6732 61.4319 66.7194 61.4222C66.7655 61.4125 66.8093 61.3938 66.8482 61.3672C66.8871 61.3406 66.9203 61.3066 66.9461 61.2671C66.9719 61.2276 66.9896 61.1834 66.9983 61.1371ZM79.5447 47.3338C82.8302 47.1133 87.7253 48.1276 89.0703 51.1044C89.8421 52.8022 89.0703 54.897 86.3361 57.1902C85.5938 57.9338 84.747 58.5652 83.8224 59.0644C80.5149 60.4756 76.8546 56.3964 79.5447 47.3338ZM85.851 359.187C83.7207 358.616 81.4978 358.478 79.313 358.779C77.1282 359.08 75.0258 359.815 73.1294 360.941C71.2331 362.067 69.5811 363.561 68.2706 365.335C66.9602 367.109 66.0178 369.127 65.4989 371.27C64.5193 375.724 65.349 380.384 67.8053 384.225C70.2616 388.067 74.1433 390.775 78.5966 391.755C83.0498 392.734 87.7098 391.905 91.5514 389.448C95.393 386.992 98.1015 383.11 99.081 378.657C99.4995 376.509 99.4886 374.3 99.0491 372.156C98.6096 370.013 97.7502 367.977 96.5203 366.167C95.2905 364.357 93.7145 362.809 91.8834 361.611C90.0522 360.413 88.002 359.589 85.851 359.187ZM92.6645 377.158C91.7797 380.686 89.6617 383.782 86.6933 385.885C83.7249 387.988 80.1021 388.959 76.4798 388.624C73.1546 387.324 70.3942 384.894 68.6841 381.76C66.9741 378.627 66.424 374.99 67.1306 371.491C67.9557 367.877 70.054 364.68 73.042 362.486C76.03 360.291 79.7079 359.246 83.4035 359.54C86.7615 360.927 89.5224 363.455 91.2003 366.677C92.8782 369.9 93.3654 373.611 92.5763 377.158H92.6645Z" fill="#F0F0F0"/>
<path d="M115.222 365.471C113.302 364.809 111.245 364.649 109.246 365.008C108.418 363.108 107.398 361.298 106.203 359.606C107.636 358.305 111.561 354.688 110.613 352.991C107.239 348.954 103.233 345.492 98.7502 342.737C96.8785 341.689 94.8176 341.022 92.6865 340.775C91.2753 340.973 87.9237 346.464 87.174 347.698C86.6889 347.698 84.969 347.147 84.8367 347.081C84.8367 345.493 84.3736 339.76 82.9404 339.099C81.3376 338.509 79.6733 338.102 77.9791 337.886C76.4136 337.644 62.3236 340.224 61.2873 342.12C60.6037 343.399 62.1913 348.228 62.6544 349.573C61.4652 350.227 60.3231 350.964 59.2366 351.778C57.0316 353.343 57.627 353.277 57.2301 353.101C56.7504 352.872 56.2364 352.723 55.7086 352.66C53.9472 351.627 51.882 351.237 49.8654 351.557C47.8368 352.219 43.0519 363.111 42.2802 365.912C42.0276 366.618 41.9593 367.377 42.0817 368.117C42.6109 369.572 46.1389 370.741 47.6163 371.204C47.2083 374.041 47.2083 376.922 47.6163 379.759C45.6759 380.288 41.6407 381.479 41.8612 383.464C42.0817 385.448 47.2414 398.546 49.3803 399.582C50.5519 400.237 51.8476 400.641 53.1842 400.766C54.5208 400.891 55.8688 400.736 57.1419 400.31C57.8589 399.952 58.5513 399.547 59.2146 399.097C60.0966 399.759 61.0227 400.354 61.9708 400.927C61.2873 402.625 59.7658 406.418 60.2509 408.138C60.4935 409.042 61.2211 409.328 62.2354 409.703C65.0358 410.717 80.118 414.334 82.4112 413.937C83.2711 413.804 83.7342 412.9 83.9988 412.04C84.4887 410.083 84.7768 408.081 84.8587 406.065C85.9911 405.953 87.1171 405.784 88.2324 405.558C88.9134 406.756 89.7847 407.836 90.8122 408.755C91.9368 409.549 92.8849 409.152 94.1638 408.336C94.7812 409.13 95.7073 410.232 96.6996 410.343C99.1912 410.629 109.489 400.927 110.547 398.943C111.429 397.289 108.21 394.334 106.776 393.033C108.327 390.7 109.544 388.162 110.393 385.492C111.983 385.732 113.592 385.82 115.2 385.757C115.927 385.757 116.765 385.492 117.074 384.809C118.419 381.744 118.022 370.123 117.074 367.169C116.941 366.309 115.949 365.735 115.222 365.471ZM115.751 367.499C116.5 370.366 116.743 381.192 115.641 383.993C113.734 384.181 111.81 384.092 109.93 383.728C109.729 383.694 109.522 383.736 109.351 383.846C109.18 383.956 109.056 384.127 109.003 384.324C108.125 387.305 106.762 390.121 104.968 392.658C104.841 392.827 104.783 393.038 104.808 393.247C104.832 393.457 104.937 393.649 105.101 393.783C106.648 395.009 107.962 396.503 108.981 398.193C107.879 400.001 99.2574 407.895 96.876 408.557C96.5232 408.557 95.553 407.233 95.3104 406.881C94.4959 405.657 93.7595 404.383 93.1054 403.066C93.0099 402.874 92.8462 402.725 92.6464 402.647C92.4465 402.57 92.2249 402.57 92.025 402.647C85.6305 405.051 83.205 403.639 83.205 405.227C83.2078 407.604 82.8205 409.965 82.0584 412.217C76.8765 411.653 71.7735 410.514 66.8439 408.821C67.0819 406.467 67.7391 404.174 68.7843 402.052C69.4458 400.574 66.7998 400.993 61.8606 395.966C61.7016 395.819 61.4929 395.737 61.2762 395.737C61.0596 395.737 60.8509 395.819 60.6919 395.966C58.4869 397.774 55.6204 399.538 55.0471 399.251C53.9226 398.7 48.7408 386.948 48.4321 384.566C50.0005 383.473 51.7808 382.722 53.658 382.361C53.8582 382.305 54.031 382.177 54.1446 382.003C54.2581 381.829 54.3046 381.619 54.2754 381.413C53.735 378.29 53.735 375.098 54.2754 371.976C54.3091 371.783 54.2687 371.585 54.1623 371.422C54.0559 371.258 53.8915 371.141 53.7021 371.094C52.0398 370.658 50.4394 370.013 48.9393 369.175C48.4542 368.822 48.4983 368.844 48.5424 368.47C49.9696 363.322 52.2584 358.454 55.3117 354.071C56.5024 353.74 59.7217 356.1 60.8242 356.937C60.9394 357.049 61.0937 357.112 61.2542 357.112C61.4147 357.112 61.569 357.049 61.6842 356.937C62.6973 355.887 63.7882 354.914 64.9476 354.027C68.2992 351.491 69.2032 351.822 68.9166 350.94C67.9029 348.727 67.3336 346.338 67.2408 343.906C67.5825 343.622 67.9703 343.398 68.3874 343.244C70.4459 342.43 72.561 341.767 74.7157 341.26C77.3275 340.532 80.012 340.096 82.7199 339.959C83.1829 340.157 83.6019 342.164 83.7121 342.781C84.528 347.191 83.9767 348.095 84.6162 348.162C90.9004 348.779 92.1793 350.521 92.6203 349.749C93.843 347.611 95.2681 345.595 96.876 343.729C97.339 343.266 97.317 343.046 98.7061 343.84C102.856 346.552 106.573 349.875 109.731 353.696C110.062 354.269 107.195 357.312 105.101 359.098C104.373 359.738 105.409 360.024 107.306 363.641C109.202 367.257 108.761 368.271 109.775 368.051C111.731 367.583 113.743 367.397 115.751 367.499ZM421.783 183.25C417.16 181.362 412.313 180.079 407.362 179.435C403.746 178.862 399.49 178.288 395.896 177.825C399.358 172.93 409.611 160.538 411.331 157.517C411.816 156.701 410.89 155.555 410.206 154.871C406.37 150.77 398.961 149.226 393.272 148.344C390.009 147.815 376.382 146.139 374.067 147.242C371.288 148.565 350.738 179.435 350.12 184.132C350.12 184.925 350.385 185.234 351.157 185.521C354.398 186.711 369.017 188.564 372.28 189.335C367.87 197.053 348.268 223.138 346.35 226.82C345.887 227.746 346.173 228.298 346.724 228.474C348.709 229.262 350.751 229.896 352.832 230.37C353.626 230.613 355.368 229.533 357.904 227.989C369.282 221.154 418.1 188.916 421.849 184.749C421.952 184.651 422.034 184.532 422.087 184.4C422.14 184.268 422.165 184.126 422.159 183.984C422.152 183.842 422.115 183.703 422.051 183.576C421.986 183.449 421.894 183.338 421.783 183.25ZM374.397 209.71C355.655 222.08 349.326 225.696 349.106 225.85C352.127 221.242 370.891 195.531 374.111 189.379C374.167 189.261 374.195 189.131 374.195 188.999C374.194 188.868 374.164 188.738 374.107 188.62C374.05 188.502 373.968 188.398 373.865 188.315C373.763 188.233 373.643 188.175 373.515 188.145C371.31 187.351 355.258 185.631 351.465 184.286C351.95 180.185 371.972 149.182 374.397 147.948C376.823 146.713 400.35 149.513 404.76 152.666C402.445 157.186 389.656 173.018 387.583 176.701C387.164 177.45 387.032 178.178 387.848 178.377C388.664 178.575 409.391 181 413.911 182.478C408.398 187.086 380.571 205.564 374.397 209.621V209.71ZM232.947 74.8959C232.947 75.0943 233.079 75.3369 233.41 76.6158C233.496 76.8932 233.687 77.1262 233.942 77.266C234.197 77.4058 234.496 77.4414 234.777 77.3655C235.057 77.2836 235.294 77.0936 235.435 76.8372C235.575 76.5808 235.608 76.2791 235.526 75.9984C235.306 75.1384 235.107 74.4108 234.975 74.058C234.847 73.8158 234.633 73.6302 234.375 73.5374C234.117 73.4445 233.834 73.451 233.58 73.5557C233.327 73.6603 233.122 73.8556 233.005 74.1033C232.887 74.3511 232.867 74.6337 232.947 74.8959Z" fill="#F0F0F0"/>
</svg>
